# ProBuilder 6.0.5
# https://unity3d.com/unity/features/worldbuilding/probuilder
# 31.05.2025 18:18:18

mtllib ./m203.mtl
o m203

g _ca_launcher_1
v 0.03125 6.400375 0.271875
v 0.03125 6.462875 0.271875
v -0.03125 6.462875 0.271875
v -0.03125 6.400375 0.271875
v 0.03125 6.400375 0.334375
v 0.03125 6.462875 0.334375
v -0.03125 6.400375 0.334375
v -0.03125 6.462875 0.334375

vt 0.12 0.6433333
vt 0.12 0.6466666
vt 0.1233333 0.6466666
vt 0.1233333 0.6433333
vt 0.1166667 0.6433333
vt 0.1166667 0.6466666
vt 0.1266667 0.6433333
vt 0.1266667 0.6466666
vt 0.13 0.6466666
vt 0.13 0.6433333
vt 0.1233333 0.65
vt 0.12 0.65
vt 0.1266667 0.65

vn 0 0 -1
vn 1 0 0
vn 0 0 1
vn -1 0 0
vn 0 1 0
vn 0 -1 0

usemtl m203launcher.png
f 4/4/1 3/3/1 2/2/1 1/1/1
f 1/1/2 2/2/2 6/6/2 5/5/2
f 5/10/3 6/9/3 8/8/3 7/7/3
f 7/7/4 8/8/4 3/3/4 4/4/4
f 6/12/5 2/2/5 3/3/5 8/11/5
f 1/3/6 5/11/6 7/13/6 4/8/6

g grenade_1
v 0.03038497 6.068199 -0.2125
v 0.1009266 6.26201 -0.2125
v -0.07820227 6.327208 -0.2125
v -0.1487439 6.133396 -0.2125
v 0.03038497 6.068199 0.2874999
v 0.1009266 6.26201 0.2874999
v -0.1487439 6.133396 0.2874999
v -0.07820227 6.327208 0.2874999

vt 0.1633333 0.1033333
vt 0.1633333 0.1133333
vt 0.1733333 0.1133333
vt 0.1733333 0.1033333
vt 0.1366667 0.1033333
vt 0.1366667 0.1133333
vt 0.2 0.1033333
vt 0.2 0.1133333
vt 0.21 0.1133333
vt 0.21 0.1033333
vt 0.1733333 0.14
vt 0.1633333 0.14
vt 0.1833333 0.1133333
vt 0.1833333 0.14

vn 0 0 -1
vn 0.9396926 -0.3420202 0
vn 0 0 1
vn -0.9396926 0.3420202 0
vn 0.3420202 0.9396926 0
vn -0.3420202 -0.9396926 0

usemtl m203launcher.png
f 12/17/7 11/16/7 10/15/7 9/14/7
f 9/14/8 10/15/8 14/19/8 13/18/8
f 13/23/9 14/22/9 16/21/9 15/20/9
f 15/20/10 16/21/10 11/16/10 12/17/10
f 14/25/11 10/15/11 11/16/11 16/24/11
f 9/16/12 13/24/12 15/27/12 12/26/12

g launcher2_12
v 0.025 6.088868 0.7075384
v 0.025 6.252245 0.7702528
v -0.025 6.252245 0.7702528
v -0.025 6.088868 0.7075384
v 0.025 6.07095 0.7542174
v 0.025 6.234326 0.8169318
v -0.025 6.07095 0.7542174
v -0.025 6.234326 0.8169318
v 0.078125 6.341 -0.84375
v 0.078125 6.481625 -0.84375
v -0.078125 6.481625 -0.84375
v -0.078125 6.341 -0.84375
v 0.078125 6.341 0.71875
v 0.078125 6.481625 0.71875
v -0.078125 6.341 0.71875
v -0.078125 6.481625 0.71875
v 0.0780625 6.305125 -0.8436875
v 0.0780625 6.3675 -0.8436875
v -0.0155625 6.3675 -0.8436875
v -0.0155625 6.305125 -0.8436875
v 0.0780625 6.305125 0.7186875
v 0.0780625 6.3675 0.7186875
v -0.0155625 6.305125 0.7186875
v -0.0155625 6.3675 0.7186875
v 0.04906223 6.028145 0.28125
v 0.1409802 6.280687 0.28125
v -0.09687953 6.367261 0.28125
v -0.1887974 6.114719 0.28125
v 0.04906223 6.028145 0.40625
v 0.1409802 6.280687 0.40625
v -0.1887974 6.114719 0.40625
v -0.09687953 6.367261 0.40625
v 0.071875 6.231625 0.40625
v 0.071875 6.419125 0.40625
v -0.071875 6.419125 0.40625
v -0.071875 6.231625 0.40625
v 0.071875 6.231625 0.78125
v 0.071875 6.419125 0.78125
v -0.071875 6.231625 0.78125
v -0.071875 6.419125 0.78125
v 0.071875 6.356625 0.78125
v -0.071875 6.356625 0.78125
v 0.071875 6.231625 0.84375
v 0.071875 6.356625 0.84375
v -0.071875 6.231625 0.84375
v -0.071875 6.356625 0.84375
v 0.071875 6.169125 0.40625
v -0.071875 6.169125 0.40625
v 0.071875 6.169125 0.53125
v 0.071875 6.231625 0.53125
v -0.071875 6.169125 0.53125
v -0.071875 6.231625 0.53125
v 0.0593125 6.175345 0.4688331
v 0.0593125 6.19114 0.5027063
v -0.0593125 6.19114 0.5027063
v -0.0593125 6.175345 0.4688331
v 0.0593125 5.999861 0.5506625
v 0.0593125 6.015656 0.5845358
v -0.0593125 5.999861 0.5506625
v -0.0593125 6.015656 0.5845358
v 0.059375 6.000375 0.5515625
v 0.059375 6.037772 0.5543416
v -0.059375 6.037772 0.5543416
v -0.059375 6.000375 0.5515625
v 0.059375 5.974437 0.9006001
v 0.059375 6.011834 0.9033791
v -0.059375 5.974437 0.9006001
v -0.059375 6.011834 0.9033791
v 0.0593125 5.978578 0.8983953
v 0.0593125 5.989193 0.8625594
v -0.0593125 5.989193 0.8625594
v -0.0593125 5.978578 0.8983953
v 0.0593125 6.224155 0.9711387
v 0.0593125 6.234771 0.9353029
v -0.0593125 6.224155 0.9711387
v -0.0593125 6.234771 0.9353029
v 0.059375 6.225375 0.9703125
v 0.059375 6.190793 0.9558108
v -0.059375 6.190793 0.9558108
v -0.059375 6.225375 0.9703125
v 0.059375 6.288216 0.8204548
v 0.059375 6.253633 0.8059531
v -0.059375 6.288216 0.8204548
v -0.059375 6.253633 0.8059531
v 0.0718125 6.215749 0.4897206
v -0.0718125 6.215749 0.4897206
v 0.0718125 6.252365 0.6244189
v 0.0718125 6.298901 0.5828846
v -0.0718125 6.252365 0.6244189
v -0.0718125 6.298901 0.5828846

vt 0.4066667 0.09333333
vt 0.4066667 0.1033333
vt 0.41 0.1033333
vt 0.41 0.09333333
vt 0.4033333 0.09333333
vt 0.4033333 0.1033333
vt 0.4133333 0.09333333
vt 0.4133333 0.1033333
vt 0.4166667 0.1033333
vt 0.4166667 0.09333333
vt 0.41 0.1066667
vt 0.4066667 0.1066667
vt 0.4133333 0.1066667
vt 0.54 0.01666667
vt 0.54 0.02333333
vt 0.5466667 0.02333333
vt 0.5466667 0.01666667
vt 0.4566667 0.01666667
vt 0.4566667 0.02333333
vt 0.63 0.01666667
vt 0.63 0.02333333
vt 0.6366667 0.02333333
vt 0.6366667 0.01666667
vt 0.5466667 0.1066667
vt 0.54 0.1066667
vt 0.5533333 0.02333333
vt 0.5533333 0.1066667
vt 0.82 0.03666667
vt 0.82 0.04
vt 0.8233333 0.04
vt 0.8233333 0.03666667
vt 0.7366667 0.03666667
vt 0.7366667 0.04
vt 0.9066667 0.03666667
vt 0.9066667 0.04
vt 0.91 0.04
vt 0.91 0.03666667
vt 0.8233333 0.1233333
vt 0.82 0.1233333
vt 0.8266667 0.04
vt 0.8266667 0.1233333
vt 0.2766667 0.09
vt 0.2766667 0.1033333
vt 0.29 0.1033333
vt 0.29 0.09
vt 0.27 0.09
vt 0.27 0.1033333
vt 0.2966667 0.09
vt 0.2966667 0.1033333
vt 0.31 0.1033333
vt 0.31 0.09
vt 0.29 0.11
vt 0.2766667 0.11
vt 0.3033333 0.1033333
vt 0.3033333 0.11
vt 0.34 0.01
vt 0.34 0.02
vt 0.3466667 0.02
vt 0.3466667 0.01
vt 0.32 0.01
vt 0.32 0.02
vt 0.3666667 0.01
vt 0.3666667 0.02
vt 0.3733333 0.02
vt 0.3733333 0.01
vt 0.3466667 0.04
vt 0.34 0.04
vt 0.3533333 0.02
vt 0.3533333 0.04
vt 0.39 0.01333333
vt 0.39 0.02
vt 0.3966667 0.02
vt 0.3966667 0.01333333
vt 0.3866667 0.01333333
vt 0.3866667 0.02
vt 0.4 0.01333333
vt 0.4 0.02
vt 0.4066667 0.02
vt 0.4066667 0.01333333
vt 0.3966667 0.02333333
vt 0.39 0.02333333
vt 0.4033333 0.02
vt 0.4033333 0.02333333
vt 0.2733333 0.03333334
vt 0.2733333 0.03666667
vt 0.28 0.03666667
vt 0.28 0.03333334
vt 0.2666667 0.03333334
vt 0.2666667 0.03666667
vt 0.2866667 0.03333334
vt 0.2866667 0.03666667
vt 0.2933333 0.03666667
vt 0.2933333 0.03333334
vt 0.28 0.04333333
vt 0.2733333 0.04333333
vt 0.2866667 0.04333333
vt 0.1533333 0.01
vt 0.1533333 0.01333333
vt 0.16 0.01333333
vt 0.16 0.01
vt 0.1433333 0.01
vt 0.1433333 0.01333333
vt 0.17 0.01
vt 0.17 0.01333333
vt 0.1766667 0.01333333
vt 0.1766667 0.01
vt 0.16 0.02333333
vt 0.1533333 0.02333333
vt 0.1666667 0.01333333
vt 0.1666667 0.02333333
vt 0.2133333 0.01
vt 0.2133333 0.01333333
vt 0.22 0.01333333
vt 0.22 0.01
vt 0.1933333 0.01
vt 0.1933333 0.01333333
vt 0.24 0.01
vt 0.24 0.01333333
vt 0.2466667 0.01333333
vt 0.2466667 0.01
vt 0.22 0.03333334
vt 0.2133333 0.03333334
vt 0.2266667 0.01333333
vt 0.2266667 0.03333334
vt 0.4866667 0.06666667
vt 0.4866667 0.07
vt 0.4933333 0.07
vt 0.4933333 0.06666667
vt 0.4733333 0.06666667
vt 0.4733333 0.07
vt 0.5066667 0.06666667
vt 0.5066667 0.07
vt 0.5133333 0.07
vt 0.5133333 0.06666667
vt 0.4933333 0.08333334
vt 0.4866667 0.08333334
vt 0.5 0.07
vt 0.5 0.08333334
vt 0.4833333 0.1033333
vt 0.4833333 0.1066667
vt 0.49 0.1066667
vt 0.49 0.1033333
vt 0.4733333 0.1033333
vt 0.4733333 0.1066667
vt 0.5 0.1033333
vt 0.5 0.1066667
vt 0.5066667 0.1066667
vt 0.5066667 0.1033333
vt 0.49 0.1166667
vt 0.4833333 0.1166667
vt 0.4966667 0.1066667
vt 0.4966667 0.1166667
vt 0.2866667 0.01
vt 0.2866667 0.01333333
vt 0.2933333 0.01333333
vt 0.2933333 0.01
vt 0.28 0.01
vt 0.28 0.01333333
vt 0.3 0.01
vt 0.3 0.01333333
vt 0.3066667 0.01333333
vt 0.3066667 0.01
vt 0.2933333 0.02
vt 0.2866667 0.02
vt 0.3 0.02

vn 0 0.3583679 -0.9335804
vn 1 0 0
vn 0 -0.3583679 0.9335804
vn -1 0 0
vn 0 0.9335804 0.3583679
vn 0 -0.9335804 -0.3583679
vn 0 1.04829E-07 -1
vn 0 -2.136039E-08 1
vn 0 1 2.136039E-08
vn 0 -1 6.46247E-09
vn 1.81995E-08 2.782286E-08 -0.9999999
vn 0.9396927 -0.34202 4.637943E-10
vn -0.9396924 0.3420206 2.111809E-08
vn 0.3420193 0.9396929 -3.166094E-08
vn -0.3420209 -0.9396923 -5.432415E-08
vn 0 -0.9999999 0
vn 0 2.782286E-08 0.9999999
vn 0 0.9063091 -0.4226156
vn 0 -0.9063042 0.4226258
vn 0 0.4226186 0.9063076
vn 0 -0.4226175 -0.9063081
vn 0 0.07410819 -0.9972502
vn 0 -0.07410686 0.9972503
vn 0 0.9972502 0.0741087
vn 0 -0.9972502 -0.07410865
vn 0 -0.9588177 -0.2840222
vn 0 0.9588175 0.2840226
vn 0 0.2840151 -0.9588197
vn 0 -0.2840151 0.9588197
vn 0 -0.3867096 0.9222016
vn 0 0.3867108 -0.922201
vn 0 -0.9222011 -0.3867105
vn 0 0.9222011 0.3867106
vn 0 -0.6658803 -0.7460586
vn 0 0.6658804 0.7460585
vn 0 0.746058 -0.665881
vn 0 -0.746058 0.665881

usemtl m203launcher.png
f 20/31/13 19/30/13 18/29/13 17/28/13
f 17/28/14 18/29/14 22/33/14 21/32/14
f 21/37/15 22/36/15 24/35/15 23/34/15
f 23/34/16 24/35/16 19/30/16 20/31/16
f 22/39/17 18/29/17 19/30/17 24/38/17
f 17/30/18 21/38/18 23/40/18 20/35/18
f 28/44/19 27/43/19 26/42/19 25/41/19
f 25/41/14 26/42/14 30/46/14 29/45/14
f 29/50/20 30/49/20 32/48/20 31/47/20
f 31/47/16 32/48/16 27/43/16 28/44/16
f 30/52/21 26/42/21 27/43/21 32/51/21
f 25/43/22 29/51/22 31/54/22 28/53/22
f 36/58/19 35/57/19 34/56/19 33/55/19
f 33/55/14 34/56/14 38/60/14 37/59/14
f 37/64/20 38/63/20 40/62/20 39/61/20
f 39/61/16 40/62/16 35/57/16 36/58/16
f 38/66/21 34/56/21 35/57/21 40/65/21
f 33/57/22 37/65/22 39/68/22 36/67/22
f 44/72/23 43/71/23 42/70/19 41/69/23
f 41/69/24 42/70/24 46/74/24 45/73/24
f 45/78/20 46/77/20 48/76/20 47/75/20
f 47/75/25 48/76/25 43/71/25 44/72/25
f 46/80/26 42/70/26 43/71/26 48/79/26
f 41/71/27 45/79/27 47/82/27 44/81/27
f 52/86/19 51/85/19 50/84/19 49/83/19
f 49/83/14 50/84/14 54/88/14 53/87/14
f 53/92/20 54/91/20 56/90/20 55/89/20
f 55/89/16 56/90/16 51/85/16 52/86/16
f 54/94/21 50/84/21 51/85/21 56/93/21
f 49/85/28 53/93/28 55/96/28 52/95/28
f 55/100/23 58/99/23 57/98/23 53/97/23
f 53/97/14 57/98/14 60/102/14 59/101/14
f 59/106/29 60/105/29 62/104/29 61/103/29
f 61/103/16 62/104/16 58/99/16 55/100/16
f 60/108/21 57/98/21 58/99/21 62/107/21
f 53/99/22 59/107/22 61/110/22 55/109/22
f 64/114/19 52/113/19 49/112/19 63/111/19
f 63/111/14 49/112/14 66/116/14 65/115/14
f 65/120/20 66/119/20 68/118/20 67/117/20
f 67/117/16 68/118/16 52/113/16 64/114/16
f 66/122/21 49/112/21 52/113/21 68/121/21
f 63/113/22 65/121/22 67/123/22 64/118/22
f 72/127/30 71/126/30 70/125/30 69/124/30
f 69/124/14 70/125/14 74/129/14 73/128/14
f 73/133/31 74/132/31 76/131/31 75/130/31
f 75/130/16 76/131/16 71/126/16 72/127/16
f 74/135/32 70/125/32 71/126/32 76/134/32
f 69/126/33 73/134/33 75/137/33 72/136/33
f 80/141/34 79/140/34 78/139/34 77/138/34
f 77/138/14 78/139/14 82/143/14 81/142/14
f 81/147/35 82/146/35 84/145/35 83/144/35
f 83/144/16 84/145/16 79/140/16 80/141/16
f 82/149/36 78/139/36 79/140/36 84/148/36
f 77/140/37 81/148/37 83/151/37 80/150/37
f 88/155/38 87/154/38 86/153/38 85/152/38
f 85/152/14 86/153/14 90/157/14 89/156/14
f 89/161/39 90/160/39 92/159/39 91/158/39
f 91/158/16 92/159/16 87/154/16 88/155/16
f 90/163/40 86/153/40 87/154/40 92/162/40
f 85/154/41 89/162/41 91/165/41 88/164/41
f 96/169/42 95/168/42 94/167/42 93/166/42
f 93/166/14 94/167/14 98/171/14 97/170/14
f 97/175/43 98/174/43 100/173/43 99/172/43
f 99/172/16 100/173/16 95/168/16 96/169/16
f 98/177/44 94/167/44 95/168/44 100/176/44
f 93/168/45 97/176/45 99/179/45 96/178/45
f 67/183/46 102/182/46 101/181/46 65/180/46
f 65/180/14 101/181/14 104/185/14 103/184/14
f 103/189/47 104/188/47 106/187/47 105/186/47
f 105/186/16 106/187/16 102/182/16 67/183/16
f 104/191/48 101/181/48 102/182/48 106/190/48
f 65/182/49 103/190/49 105/192/49 67/187/49

g launcherchamber_10
v 0.05279769 6.020134 -1.28125
v 0.06562344 6.055373 -1.28125
v -0.1839824 6.146222 -1.28125
v -0.1968082 6.110983 -1.28125
v 0.05279769 6.020134 0.28125
v 0.06562344 6.055373 0.28125
v -0.1968082 6.110983 0.28125
v -0.1839824 6.146222 0.28125
v 0.1270795 6.264396 -0.71875
v 0.1441805 6.31138 -0.71875
v -0.08486957 6.394748 -0.71875
v -0.1019706 6.347764 -0.71875
v 0.1270795 6.264396 0.29375
v 0.1441805 6.31138 0.29375
v -0.1019706 6.347764 0.29375
v -0.08486957 6.394748 0.29375
v 0.0661248 5.987282 -0.71875
v 0.179419 6.298555 -0.71875
v 0.03088631 6.000107 -0.71875
v 0.0661248 5.987282 0.29375
v 0.179419 6.298555 0.29375
v 0.03088631 6.000107 0.29375
v 0.04798733 6.047092 -0.71875
v -0.1810627 6.13046 -0.71875
v -0.1981637 6.083475 -0.71875
v 0.04798733 6.047092 0.29375
v -0.1981637 6.083475 0.29375
v -0.1810627 6.13046 0.29375
v 0.1375625 6.312813 -0.7188125
v 0.1375625 6.450438 -0.7188125
v 0.07493751 6.450438 -0.7188125
v 0.0749375 6.312813 -0.7188125
v 0.1375625 6.312813 0.2938125
v 0.1375625 6.450438 0.2938125
v 0.0749375 6.312813 0.2938125
v 0.07493751 6.450438 0.2938125
v -0.0749375 6.344063 -0.7188125
v -0.07493749 6.450438 -0.7188125
v -0.1375625 6.450438 -0.7188125
v -0.1375625 6.344063 -0.7188125
v -0.0749375 6.344063 0.2938125
v -0.07493749 6.450438 0.2938125
v -0.1375625 6.344063 0.2938125
v -0.1375625 6.450438 0.2938125
v -0.120108 6.407574 -0.71875
v -0.2334022 6.096301 -0.71875
v -0.2334022 6.096301 0.29375
v -0.120108 6.407574 0.29375
v 0.1361651 6.249184 -1.28125
v 0.1489909 6.284423 -1.28125
v -0.100615 6.375272 -1.28125
v -0.1134407 6.340034 -1.28125
v 0.1361651 6.249184 0.28125
v 0.1489909 6.284423 0.28125
v -0.1134407 6.340034 0.28125
v -0.100615 6.375272 0.28125
v 0.1009266 6.26201 -1.28125
v 0.03038497 6.068198 -1.28125
v 0.03038497 6.068198 0.28125
v 0.1009266 6.26201 0.28125
v -0.1487439 6.133396 -1.28125
v -0.07820227 6.327208 -1.28125
v -0.1487439 6.133396 0.28125
v -0.07820227 6.327208 0.28125

vt 0.2233333 0.05333333
vt 0.2233333 0.05666667
vt 0.2366667 0.05666667
vt 0.2366667 0.05333333
vt 0.14 0.05333333
vt 0.14 0.05666667
vt 0.32 0.05333333
vt 0.32 0.05666667
vt 0.3333333 0.05666667
vt 0.3333333 0.05333333
vt 0.2366667 0.14
vt 0.2233333 0.14
vt 0.25 0.05666667
vt 0.25 0.14
vt 0.56 0.1233333
vt 0.56 0.1266667
vt 0.5733333 0.1266667
vt 0.5733333 0.1233333
vt 0.5066667 0.1233333
vt 0.5066667 0.1266667
vt 0.6266667 0.1233333
vt 0.6266667 0.1266667
vt 0.64 0.1266667
vt 0.64 0.1233333
vt 0.5733333 0.18
vt 0.56 0.18
vt 0.5866666 0.1266667
vt 0.5866666 0.18
vt 0.6166667 0.03333334
vt 0.6166667 0.05
vt 0.62 0.05
vt 0.62 0.03333334
vt 0.5633333 0.03333334
vt 0.5633333 0.05
vt 0.6733333 0.03333334
vt 0.6733333 0.05
vt 0.6766667 0.05
vt 0.6766667 0.03333334
vt 0.62 0.1033333
vt 0.6166667 0.1033333
vt 0.6233333 0.05
vt 0.6233333 0.1033333
vt 0.7 0.01333333
vt 0.7 0.01666667
vt 0.7133333 0.01666667
vt 0.7133333 0.01333333
vt 0.6466666 0.01333333
vt 0.6466666 0.01666667
vt 0.7666667 0.01333333
vt 0.7666667 0.01666667
vt 0.78 0.01666667
vt 0.78 0.01333333
vt 0.7133333 0.07
vt 0.7 0.07
vt 0.7266667 0.01666667
vt 0.7266667 0.07
vt 0.6966667 0.09666666
vt 0.6966667 0.1033333
vt 0.6933333 0.1033333
vt 0.6933333 0.09666666
vt 0.75 0.09666666
vt 0.75 0.1033333
vt 0.7533333 0.09666666
vt 0.7533333 0.1033333
vt 0.64 0.1033333
vt 0.64 0.09666666
vt 0.6933333 0.1566667
vt 0.6966667 0.1566667
vt 0.7 0.1566667
vt 0.7 0.1033333
vt 0.4433333 0.14
vt 0.4433333 0.1433333
vt 0.4466667 0.1433333
vt 0.4466667 0.14
vt 0.39 0.14
vt 0.39 0.1433333
vt 0.5 0.14
vt 0.5 0.1433333
vt 0.5033333 0.1433333
vt 0.5033333 0.14
vt 0.4466667 0.1966667
vt 0.4433333 0.1966667
vt 0.45 0.1433333
vt 0.45 0.1966667
vt 0.05333333 0
vt 0.05333333 0.01666667
vt 0.05666667 0.01666667
vt 0.05666667 0
vt 0 0
vt 0 0.01666667
vt 0.11 0
vt 0.11 0.01666667
vt 0.1133333 0.01666667
vt 0.1133333 0
vt 0.05666667 0.07
vt 0.05333333 0.07
vt 0.06 0.01666667
vt 0.06 0.07
vt 0.09333333 0.08333334
vt 0.09333333 0.08666667
vt 0.1066667 0.08666667
vt 0.1066667 0.08333334
vt 0.01 0.08333334
vt 0.01 0.08666667
vt 0.19 0.08333334
vt 0.19 0.08666667
vt 0.2033333 0.08666667
vt 0.2033333 0.08333334
vt 0.1066667 0.17
vt 0.09333333 0.17
vt 0.12 0.08666667
vt 0.12 0.17
vt 0.4466667 0.03333334
vt 0.4466667 0.04333333
vt 0.45 0.04333333
vt 0.45 0.03333334
vt 0.3633333 0.03333334
vt 0.3633333 0.04333333
vt 0.5333334 0.03333334
vt 0.5333334 0.04333333
vt 0.5366667 0.04333333
vt 0.5366667 0.03333334
vt 0.45 0.1266667
vt 0.4466667 0.1266667
vt 0.4533333 0.04333333
vt 0.4533333 0.1266667
vt 0.3433333 0.06666667
vt 0.3433333 0.07666667
vt 0.3466667 0.07666667
vt 0.3466667 0.06666667
vt 0.26 0.06666667
vt 0.26 0.07666667
vt 0.43 0.06666667
vt 0.43 0.07666667
vt 0.4333333 0.07666667
vt 0.4333333 0.06666667
vt 0.3466667 0.16
vt 0.3433333 0.16
vt 0.35 0.07666667
vt 0.35 0.16

vn 0 0 -1
vn 0.9396926 -0.3420202 0
vn 0 0 1
vn -0.9396926 0.3420202 0
vn 0.3420202 0.9396926 0
vn -0.3420202 -0.9396926 0
vn 1 -7.639603E-08 0
vn -1 7.639603E-08 0
vn -5.601004E-08 1 0
vn 5.601004E-08 -1 0

usemtl m203launcher.png
f 110/196/50 109/195/50 108/194/50 107/193/50
f 107/193/51 108/194/51 112/198/51 111/197/51
f 111/202/52 112/201/52 114/200/52 113/199/52
f 113/199/53 114/200/53 109/195/53 110/196/53
f 112/204/54 108/194/54 109/195/54 114/203/54
f 107/195/55 111/203/55 113/206/55 110/205/55
f 118/210/50 117/209/50 116/208/50 115/207/50
f 115/207/51 116/208/51 120/212/51 119/211/51
f 119/216/52 120/215/52 122/214/52 121/213/52
f 121/213/53 122/214/53 117/209/53 118/210/53
f 120/218/54 116/208/54 117/209/54 122/217/54
f 115/209/55 119/217/55 121/220/55 118/219/55
f 125/224/50 116/223/50 124/222/50 123/221/50
f 123/221/51 124/222/51 127/226/51 126/225/51
f 126/230/52 127/229/52 120/228/52 128/227/52
f 128/227/53 120/228/53 116/223/53 125/224/53
f 127/232/54 124/222/54 116/223/54 120/231/54
f 123/223/55 126/231/55 128/234/55 125/233/55
f 131/238/50 130/237/50 129/236/50 125/235/50
f 125/235/51 129/236/51 132/240/51 128/239/51
f 128/244/52 132/243/52 134/242/52 133/241/52
f 133/241/53 134/242/53 130/237/53 131/238/53
f 132/246/54 129/236/54 130/237/54 134/245/54
f 125/237/55 128/245/55 133/248/55 131/247/55
f 138/252/50 137/251/50 136/250/50 135/249/50
f 135/249/56 136/250/56 140/254/56 139/253/56
f 139/253/52 140/254/52 142/256/52 141/255/52
f 141/258/57 142/257/57 137/251/57 138/252/57
f 140/260/58 136/250/58 137/251/58 142/259/58
f 135/262/59 139/261/59 141/260/59 138/250/59
f 146/266/50 145/265/50 144/264/50 143/263/50
f 143/263/56 144/264/56 148/268/56 147/267/56
f 147/272/52 148/271/52 150/270/52 149/269/52
f 149/269/57 150/270/57 145/265/57 146/266/57
f 148/274/58 144/264/58 145/265/58 150/273/58
f 143/265/59 147/273/59 149/276/59 146/275/59
f 152/280/50 151/279/50 117/278/50 131/277/50
f 131/277/51 117/278/51 122/282/51 133/281/51
f 133/286/52 122/285/52 154/284/52 153/283/52
f 153/283/53 154/284/53 151/279/53 152/280/53
f 122/288/54 117/278/54 151/279/54 154/287/54
f 131/279/55 133/287/55 153/290/55 152/289/55
f 158/294/50 157/293/50 156/292/50 155/291/50
f 155/291/51 156/292/51 160/296/51 159/295/51
f 159/300/52 160/299/52 162/298/52 161/297/52
f 161/297/53 162/298/53 157/293/53 158/294/53
f 160/302/54 156/292/54 157/293/54 162/301/54
f 155/293/55 159/301/55 161/304/55 158/303/55
f 164/308/50 163/307/50 155/306/50 108/305/50
f 108/305/51 155/306/51 159/310/51 112/309/51
f 112/314/52 159/313/52 166/312/52 165/311/52
f 165/311/53 166/312/53 163/307/53 164/308/53
f 159/316/54 155/306/54 163/307/54 166/315/54
f 108/307/55 112/315/55 165/318/55 164/317/55
f 109/322/50 158/321/50 168/320/50 167/319/50
f 167/319/51 168/320/51 170/324/51 169/323/51
f 169/328/52 170/327/52 161/326/52 114/325/52
f 114/325/53 161/326/53 158/321/53 109/322/53
f 170/330/54 168/320/54 158/321/54 161/329/54
f 167/321/55 169/329/55 114/332/55 109/331/55

g muzzleflash_1
v -0.009374999 6.200375 -1.325
v -0.009374999 6.212875 -1.325
v -0.021875 6.212875 -1.325
v -0.021875 6.200375 -1.325
v -0.009374999 6.200375 -1.3125
v -0.009374999 6.212875 -1.3125
v -0.021875 6.200375 -1.3125
v -0.021875 6.212875 -1.3125

vt 0.09333333 0.7633333
vt 0.09333333 0.7666667
vt 0.09666666 0.7666667
vt 0.09666666 0.7633333
vt 0.09 0.7633333
vt 0.09 0.7666667
vt 0.1 0.7633333
vt 0.1 0.7666667
vt 0.1033333 0.7666667
vt 0.1033333 0.7633333
vt 0.09666666 0.77
vt 0.09333333 0.77
vt 0.1 0.77

vn 0 0 -1
vn 1 0 0
vn 0 0 1
vn -1 0 0
vn 0 1 0
vn 0 -1 0

usemtl m203launcher.png
f 174/336/60 173/335/60 172/334/60 171/333/60
f 171/333/61 172/334/61 176/338/61 175/337/61
f 175/342/62 176/341/62 178/340/62 177/339/62
f 177/339/63 178/340/63 173/335/63 174/336/63
f 176/344/64 172/334/64 173/335/64 178/343/64
f 171/335/65 175/343/65 177/345/65 174/340/65

