# ProBuilder 6.0.5
# https://unity3d.com/unity/features/worldbuilding/probuilder
# 31.05.2025 18:18:04

mtllib ./holographic_em.mtl
o holographic em

g _ca_scope_1
v 0.03125 1.840625 -0.696875
v 0.03125 1.903125 -0.696875
v -0.03125 1.903125 -0.696875
v -0.03125 1.840625 -0.696875
v 0.03125 1.840625 -0.634375
v 0.03125 1.903125 -0.634375
v -0.03125 1.840625 -0.634375
v -0.03125 1.903125 -0.634375

vt 0.015625 0.828125
vt 0.015625 0.84375
vt 0.03125 0.84375
vt 0.03125 0.828125
vt 0 0.828125
vt 0 0.84375
vt 0.046875 0.828125
vt 0.046875 0.84375
vt 0.0625 0.84375
vt 0.0625 0.828125
vt 0.03125 0.859375
vt 0.015625 0.859375
vt 0.046875 0.859375

vn 0 0 -1
vn 1 0 0
vn 0 0 1
vn -1 0 0
vn 0 1 0
vn 0 -1 0

usemtl holographic_em.png
f 4/4/1 3/3/1 2/2/1 1/1/1
f 1/1/2 2/2/2 6/6/2 5/5/2
f 5/10/3 6/9/3 8/8/3 7/7/3
f 7/7/4 8/8/4 3/3/4 4/4/4
f 6/12/5 2/2/5 3/3/5 8/11/5
f 1/3/6 5/11/6 7/13/6 4/8/6

g gun_30
v 0.075 1.9625 -1.325
v 0.075 2.05 -1.325
v -0.075 2.05 -1.325
v -0.075 1.9625 -1.325
v 0.075 1.9625 -0.8
v 0.075 2.05 -0.8
v -0.075 1.9625 -0.8
v -0.075 2.05 -0.8
v -0.11875 1.834375 -0.91875
v -0.11875 1.996875 -0.91875
v -0.15625 1.996875 -0.91875
v -0.15625 1.834375 -0.91875
v -0.11875 1.834375 -0.69375
v -0.11875 1.996875 -0.69375
v -0.15625 1.834375 -0.69375
v -0.15625 1.996875 -0.69375
v -0.1186875 1.896812 -0.9188125
v -0.1186875 2.059438 -0.9188125
v -0.1563125 2.059438 -0.9188125
v -0.1563125 1.896812 -0.9188125
v -0.1186875 1.896812 -0.3811875
v -0.1186875 2.059438 -0.3811875
v -0.1563125 1.896812 -0.3811875
v -0.1563125 2.059438 -0.3811875
v -0.1188125 2.053188 -0.4811875
v -0.1188125 2.090562 -0.4811875
v -0.1561875 2.090562 -0.4811875
v -0.1561875 2.053188 -0.4811875
v -0.1188125 2.053188 -0.3813125
v -0.1188125 2.090562 -0.3813125
v -0.1561875 2.053188 -0.3813125
v -0.1561875 2.090562 -0.3813125
v -0.118875 2.022602 -0.4543792
v -0.118875 2.095554 -0.5224085
v -0.156125 2.095554 -0.5224085
v -0.156125 2.022602 -0.4543792
v -0.118875 2.163584 -0.449456
v -0.156125 2.163584 -0.449456
v -0.11875 2.059375 -0.79375
v -0.11875 2.221875 -0.79375
v -0.15625 2.221875 -0.79375
v -0.15625 2.059375 -0.79375
v -0.11875 2.059375 -0.44375
v -0.11875 2.221875 -0.44375
v -0.15625 2.059375 -0.44375
v -0.15625 2.221875 -0.44375
v -0.1297335 2.195447 -0.7936875
v -0.07678887 2.248392 -0.7936875
v -0.103217 2.27482 -0.7936875
v -0.1297335 2.195447 -0.4438125
v -0.07678887 2.248392 -0.4438125
v -0.103217 2.27482 -0.4438125
v 0.1561616 2.221875 -0.7936875
v 0.103217 2.27482 -0.7936875
v 0.07678887 2.248392 -0.7936875
v 0.1297335 2.195447 -0.7936875
v 0.1561616 2.221875 -0.4438125
v 0.103217 2.27482 -0.4438125
v 0.1297335 2.195447 -0.4438125
v 0.07678887 2.248392 -0.4438125
v 0.1031875 2.237437 -0.7938125
v 0.1031875 2.275063 -0.7938125
v -0.1031875 2.275063 -0.7938125
v -0.1031875 2.237437 -0.7938125
v 0.1031875 2.237437 -0.4436875
v 0.1031875 2.275063 -0.4436875
v -0.1031875 2.237437 -0.4436875
v -0.1031875 2.275063 -0.4436875
v -0.1188125 2.224006 -0.7946134
v -0.1561875 2.224006 -0.7946134
v -0.1188125 1.961668 -0.7889841
v -0.1188125 2.126286 -0.6649349
v -0.1561875 1.961668 -0.7889841
v -0.1561875 2.126286 -0.6649349
v 0.1561875 2.059387 -0.9186625
v 0.1561875 2.224006 -0.7946134
v 0.1188125 2.224006 -0.7946134
v 0.1188125 2.059387 -0.9186625
v 0.1561875 1.961668 -0.7889841
v 0.1561875 2.126286 -0.6649349
v 0.1188125 1.961668 -0.7889841
v 0.1188125 2.126286 -0.6649349
v 0.15625 2.059375 -0.79375
v 0.11875 2.221875 -0.79375
v 0.11875 2.059375 -0.79375
v 0.15625 2.059375 -0.44375
v 0.11875 2.059375 -0.44375
v 0.11875 2.221875 -0.44375
v 0.156125 2.022602 -0.4543792
v 0.156125 2.095554 -0.5224085
v 0.118875 2.095554 -0.5224085
v 0.118875 2.022602 -0.4543792
v 0.156125 2.090631 -0.3814267
v 0.156125 2.163584 -0.449456
v 0.118875 2.090631 -0.3814267
v 0.118875 2.163584 -0.449456
v 0.1561875 2.053188 -0.4811875
v 0.1561875 2.090562 -0.4811875
v 0.1188125 2.090562 -0.4811875
v 0.1188125 2.053188 -0.4811875
v 0.1561875 2.053188 -0.3813125
v 0.1188125 2.053188 -0.3813125
v 0.1875 1.973312 -0.6099563
v 0.1875 2.084188 -0.5522377
v 0.125 2.084188 -0.5522377
v 0.125 1.973312 -0.6099563
v 0.1875 1.915593 -0.4990799
v 0.1875 2.02647 -0.4413614
v 0.125 1.915593 -0.4990799
v 0.125 2.02647 -0.4413614
v 0.15625 1.834375 -0.91875
v 0.11875 1.834375 -0.91875
v 0.15625 1.834375 -0.38125
v 0.15625 2.059375 -0.38125
v 0.11875 1.834375 -0.38125
v 0.11875 2.059375 -0.38125
v -0.046875 1.840625 -1.25
v -0.046875 1.903125 -1.25
v -0.109375 1.903125 -1.25
v -0.109375 1.840625 -1.25
v -0.046875 1.840625 -0.4375
v -0.046875 1.903125 -0.4375
v -0.109375 1.840625 -0.4375
v -0.109375 1.903125 -0.4375
v 0.109375 1.840625 -1.25
v 0.109375 1.903125 -1.25
v 0.046875 1.903125 -1.25
v 0.046875 1.840625 -1.25
v 0.109375 1.840625 -0.4375
v 0.109375 1.903125 -0.4375
v 0.046875 1.840625 -0.4375
v 0.046875 1.903125 -0.4375
v 0.109375 1.853856 -0.4638963
v 0.109375 2.040643 -0.480238
v -0.109375 2.040643 -0.480238
v -0.109375 1.853856 -0.4638963
v 0.109375 1.859304 -0.4016342
v 0.109375 2.04609 -0.4179758
v -0.109375 1.859304 -0.4016342
v -0.109375 2.04609 -0.4179758
v 0.03125 1.9678 -0.4400575
v 0.03125 2.030062 -0.4455047
v -0.03125 2.030062 -0.4455047
v -0.03125 1.9678 -0.4400575
v 0.03125 1.970524 -0.4089264
v 0.03125 2.032786 -0.4143736
v -0.03125 1.970524 -0.4089264
v -0.03125 2.032786 -0.4143736
v -0.03125 1.906862 -0.43537
v -0.03125 1.953559 -0.4394554
v -0.09375 1.953559 -0.4394554
v -0.09375 1.906862 -0.43537
v -0.03125 1.909586 -0.4042389
v -0.03125 1.956283 -0.4083243
v -0.09375 1.909586 -0.4042389
v -0.09375 1.956283 -0.4083243
v 0.09375 1.906862 -0.43537
v 0.09375 1.953559 -0.4394554
v 0.03125 1.953559 -0.4394554
v 0.03125 1.906862 -0.43537
v 0.09375 1.909586 -0.4042389
v 0.09375 1.956283 -0.4083243
v 0.03125 1.909586 -0.4042389
v 0.03125 1.956283 -0.4083243
v -0.04473921 1.821875 -1.272773
v -0.04473921 1.871875 -1.272773
v -0.1551723 1.871875 -1.251307
v -0.1551723 1.821875 -1.251307
v 0.01250349 1.821875 -0.9782853
v 0.01250349 1.871875 -0.9782853
v -0.09792957 1.821875 -0.9568193
v -0.09792957 1.871875 -0.9568193
v -0.02449536 1.840687 -0.6728136
v -0.02449536 1.890562 -0.6728136
v -0.1348057 1.890562 -0.6942558
v -0.1348057 1.840687 -0.6942558
v -0.06978864 1.840687 -0.4397999
v -0.06978864 1.890562 -0.4397999
v -0.180099 1.840687 -0.461242
v -0.180099 1.890562 -0.461242
v -0.07047217 1.834375 -0.4789528
v -0.07047217 1.896875 -0.4789528
v -0.1931756 1.896875 -0.4551017
v -0.1931756 1.834375 -0.4551017
v -0.0585466 1.834375 -0.4176011
v -0.0585466 1.896875 -0.4176011
v -0.18125 1.834375 -0.39375
v -0.18125 1.896875 -0.39375
v -0.108046 1.834437 -0.4431267
v -0.108046 1.896812 -0.4431267
v -0.169275 1.896812 -0.4550284
v -0.169275 1.834437 -0.4550284
v -0.1199477 1.834437 -0.3818977
v -0.1199477 1.896812 -0.3818977
v 0.1063125 1.874937 -1.325063
v 0.1063125 2.009438 -1.325063
v -0.1063125 2.009438 -1.325063
v -0.1063125 1.874937 -1.325063
v 0.1063125 1.874937 -0.4249375
v 0.1063125 2.009438 -0.4249375
v -0.1063125 1.874937 -0.4249375
v -0.1063125 2.009438 -0.4249375
v -0.06581298 1.980073 -1.324937
v -0.03649718 2.020423 -1.324937
v -0.07684691 2.049738 -1.324937
v -0.1061627 2.009389 -1.324937
v -0.06581298 1.980073 -0.4625624
v -0.03649718 2.020423 -0.4625624
v -0.1061627 2.009389 -0.4625624
v -0.07684691 2.049738 -0.4625624
v 0.1061627 2.009389 -1.324937
v 0.07684691 2.049738 -1.324937
v 0.03649718 2.020423 -1.324937
v 0.06581298 1.980073 -1.324937
v 0.1061627 2.009389 -0.4625624
v 0.07684691 2.049738 -0.4625624
v 0.06581298 1.980073 -0.4625624
v 0.03649718 2.020423 -0.4625624
v 0.137625 1.903 -0.825125
v 0.137625 2.05325 -0.825125
v -0.137625 2.05325 -0.825125
v -0.137625 1.903 -0.825125
v 0.137625 1.903 -0.424875
v 0.137625 2.05325 -0.424875
v -0.137625 1.903 -0.424875
v -0.137625 2.05325 -0.424875

vt 0.359375 0.375
vt 0.359375 0.390625
vt 0.390625 0.390625
vt 0.390625 0.375
vt 0.234375 0.375
vt 0.234375 0.390625
vt 0.515625 0.375
vt 0.515625 0.390625
vt 0.546875 0.390625
vt 0.546875 0.375
vt 0.390625 0.515625
vt 0.359375 0.515625
vt 0.421875 0.390625
vt 0.421875 0.515625
vt 0.375 0.890625
vt 0.375 0.9375
vt 0.390625 0.9375
vt 0.390625 0.890625
vt 0.3125 0.890625
vt 0.3125 0.9375
vt 0.453125 0.890625
vt 0.453125 0.9375
vt 0.46875 0.9375
vt 0.46875 0.890625
vt 0.390625 1
vt 0.375 1
vt 0.40625 0.9375
vt 0.40625 1
vt 0.640625 0.59375
vt 0.640625 0.640625
vt 0.65625 0.640625
vt 0.65625 0.59375
vt 0.5 0.59375
vt 0.5 0.640625
vt 0.796875 0.59375
vt 0.796875 0.640625
vt 0.8125 0.640625
vt 0.8125 0.59375
vt 0.65625 0.78125
vt 0.640625 0.78125
vt 0.671875 0.640625
vt 0.671875 0.78125
vt 0.28125 0.71875
vt 0.28125 0.734375
vt 0.296875 0.734375
vt 0.296875 0.71875
vt 0.25 0.71875
vt 0.25 0.734375
vt 0.328125 0.71875
vt 0.328125 0.734375
vt 0.34375 0.734375
vt 0.34375 0.71875
vt 0.296875 0.765625
vt 0.28125 0.765625
vt 0.3125 0.734375
vt 0.3125 0.765625
vt 0.15625 0.796875
vt 0.15625 0.828125
vt 0.171875 0.828125
vt 0.171875 0.796875
vt 0.125 0.796875
vt 0.125 0.828125
vt 0.203125 0.796875
vt 0.203125 0.828125
vt 0.21875 0.828125
vt 0.21875 0.796875
vt 0.171875 0.859375
vt 0.15625 0.859375
vt 0.1875 0.828125
vt 0.1875 0.859375
vt 0.09375 0.625
vt 0.09375 0.671875
vt 0.109375 0.671875
vt 0.109375 0.625
vt 0 0.625
vt 0 0.671875
vt 0.203125 0.625
vt 0.203125 0.671875
vt 0.21875 0.671875
vt 0.21875 0.625
vt 0.109375 0.765625
vt 0.09375 0.765625
vt 0.125 0.671875
vt 0.125 0.765625
vt 0.34375 0.546875
vt 0.34375 0.5625
vt 0.359375 0.5625
vt 0.359375 0.546875
vt 0.25 0.546875
vt 0.25 0.5625
vt 0.453125 0.546875
vt 0.453125 0.5625
vt 0.46875 0.5625
vt 0.46875 0.546875
vt 0.359375 0.65625
vt 0.34375 0.65625
vt 0.375 0.5625
vt 0.375 0.65625
vt 0.34375 0.671875
vt 0.359375 0.671875
vt 0.25 0.65625
vt 0.25 0.671875
vt 0.453125 0.65625
vt 0.453125 0.671875
vt 0.46875 0.671875
vt 0.46875 0.65625
vt 0.359375 0.765625
vt 0.34375 0.765625
vt 0.375 0.671875
vt 0.375 0.765625
vt 0.703125 0.40625
vt 0.703125 0.421875
vt 0.75 0.421875
vt 0.75 0.40625
vt 0.609375 0.40625
vt 0.609375 0.421875
vt 0.84375 0.40625
vt 0.84375 0.421875
vt 0.890625 0.421875
vt 0.890625 0.40625
vt 0.75 0.515625
vt 0.703125 0.515625
vt 0.796875 0.421875
vt 0.796875 0.515625
vt 0.046875 0.4375
vt 0.046875 0.484375
vt 0.0625 0.484375
vt 0.0625 0.4375
vt 0 0.4375
vt 0 0.484375
vt 0.109375 0.4375
vt 0.109375 0.484375
vt 0.125 0.484375
vt 0.125 0.4375
vt 0.0625 0.53125
vt 0.046875 0.53125
vt 0.078125 0.484375
vt 0.078125 0.53125
vt 0.359375 0.796875
vt 0.359375 0.84375
vt 0.375 0.84375
vt 0.375 0.796875
vt 0.3125 0.796875
vt 0.3125 0.84375
vt 0.421875 0.796875
vt 0.421875 0.84375
vt 0.4375 0.84375
vt 0.4375 0.796875
vt 0.359375 0.890625
vt 0.390625 0.84375
vt 0.09375 0.859375
vt 0.09375 0.90625
vt 0.109375 0.90625
vt 0.109375 0.859375
vt 0 0.859375
vt 0 0.90625
vt 0.203125 0.859375
vt 0.203125 0.90625
vt 0.21875 0.90625
vt 0.21875 0.859375
vt 0.109375 1
vt 0.09375 1
vt 0.125 0.90625
vt 0.125 1
vt 0.15625 0.9375
vt 0.15625 0.96875
vt 0.171875 0.96875
vt 0.171875 0.9375
vt 0.125 0.9375
vt 0.125 0.96875
vt 0.203125 0.9375
vt 0.203125 0.96875
vt 0.21875 0.96875
vt 0.21875 0.9375
vt 0.171875 1
vt 0.15625 1
vt 0.1875 0.96875
vt 0.1875 1
vt 0.15625 0.71875
vt 0.15625 0.734375
vt 0.171875 0.734375
vt 0.171875 0.71875
vt 0.125 0.71875
vt 0.125 0.734375
vt 0.203125 0.71875
vt 0.203125 0.734375
vt 0.21875 0.734375
vt 0.21875 0.71875
vt 0.171875 0.765625
vt 0.15625 0.765625
vt 0.1875 0.734375
vt 0.1875 0.765625
vt 0.03125 0.9375
vt 0.03125 0.96875
vt 0.046875 0.96875
vt 0.046875 0.9375
vt 0 0.9375
vt 0 0.96875
vt 0.078125 0.9375
vt 0.078125 0.96875
vt 0.09375 0.96875
vt 0.09375 0.9375
vt 0.046875 1
vt 0.03125 1
vt 0.0625 0.96875
vt 0.0625 1
vt 0.578125 0.3125
vt 0.578125 0.375
vt 0.59375 0.375
vt 0.59375 0.3125
vt 0.4375 0.3125
vt 0.4375 0.375
vt 0.734375 0.3125
vt 0.734375 0.375
vt 0.75 0.375
vt 0.75 0.3125
vt 0.59375 0.515625
vt 0.578125 0.515625
vt 0.609375 0.375
vt 0.609375 0.515625
vt 0.203125 0.3125
vt 0.203125 0.328125
vt 0.21875 0.328125
vt 0.21875 0.3125
vt 0 0.3125
vt 0 0.328125
vt 0.421875 0.3125
vt 0.421875 0.328125
vt 0.4375 0.328125
vt 0.21875 0.53125
vt 0.203125 0.53125
vt 0.234375 0.328125
vt 0.234375 0.53125
vt 0.515625 0.78125
vt 0.515625 0.796875
vt 0.53125 0.796875
vt 0.53125 0.78125
vt 0.3125 0.78125
vt 0.734375 0.78125
vt 0.734375 0.796875
vt 0.75 0.796875
vt 0.75 0.78125
vt 0.53125 1
vt 0.515625 1
vt 0.546875 0.796875
vt 0.546875 1
vt 0.015625 0.5625
vt 0.015625 0.609375
vt 0.0625 0.609375
vt 0.0625 0.5625
vt 0 0.5625
vt 0 0.609375
vt 0.078125 0.5625
vt 0.078125 0.609375
vt 0.125 0.609375
vt 0.125 0.5625
vt 0.0625 0.625
vt 0.015625 0.625
vt 0.109375 0.609375
vt 0.015625 0.71875
vt 0.015625 0.75
vt 0.046875 0.75
vt 0.046875 0.71875
vt 0 0.71875
vt 0 0.75
vt 0.0625 0.71875
vt 0.0625 0.75
vt 0.09375 0.75
vt 0.09375 0.71875
vt 0.046875 0.765625
vt 0.015625 0.765625
vt 0.078125 0.75
vt 0.078125 0.765625
vt 0.140625 0.90625
vt 0.140625 0.921875
vt 0.171875 0.921875
vt 0.171875 0.90625
vt 0.125 0.921875
vt 0.1875 0.90625
vt 0.1875 0.921875
vt 0.21875 0.921875
vt 0.140625 0.9375
vt 0.203125 0.921875
vt 0.015625 0.90625
vt 0.015625 0.921875
vt 0.046875 0.921875
vt 0.046875 0.90625
vt 0 0.921875
vt 0.0625 0.90625
vt 0.0625 0.921875
vt 0.09375 0.921875
vt 0.015625 0.9375
vt 0.078125 0.921875
vt 0.75 0.765625
vt 0.78125 0.78125
vt 0.78125 0.765625
vt 0.671875 0.765625
vt 0.859375 0.765625
vt 0.859375 0.78125
vt 0.890625 0.78125
vt 0.890625 0.765625
vt 0.78125 0.859375
vt 0.75 0.859375
vt 0.8125 0.78125
vt 0.8125 0.859375
vt 0.0625 0.78125
vt 0.0625 0.796875
vt 0.09375 0.796875
vt 0.09375 0.78125
vt 0 0.78125
vt 0 0.796875
vt 0.15625 0.78125
vt 0.1875 0.796875
vt 0.1875 0.78125
vt 0.0625 0.859375
vt 0.125 0.859375
vt 0.015625 0.6875
vt 0.015625 0.703125
vt 0.046875 0.703125
vt 0.046875 0.6875
vt 0 0.6875
vt 0 0.703125
vt 0.0625 0.6875
vt 0.0625 0.703125
vt 0.09375 0.703125
vt 0.09375 0.6875
vt 0.078125 0.703125
vt 0.078125 0.71875
vt 0.140625 0.6875
vt 0.140625 0.703125
vt 0.15625 0.703125
vt 0.15625 0.6875
vt 0.125 0.6875
vt 0.125 0.703125
vt 0.171875 0.6875
vt 0.171875 0.703125
vt 0.1875 0.703125
vt 0.1875 0.6875
vt 0.140625 0.71875
vt 0.21875 0.765625
vt 0.21875 0.78125
vt 0.265625 0.78125
vt 0.265625 0.765625
vt 0 0.765625
vt 0.484375 0.765625
vt 0.484375 0.78125
vt 0.53125 0.765625
vt 0.265625 1
vt 0.21875 1
vt 0.3125 1
vt 0.46875 0.515625
vt 0.46875 0.53125
vt 0.484375 0.53125
vt 0.484375 0.515625
vt 0.25 0.515625
vt 0.25 0.53125
vt 0.703125 0.53125
vt 0.71875 0.53125
vt 0.71875 0.515625
vt 0.484375 0.75
vt 0.46875 0.75
vt 0.5 0.53125
vt 0.5 0.75
vt 0.21875 0.546875
vt 0.234375 0.546875
vt 0 0.53125
vt 0 0.546875
vt 0.453125 0.53125
vt 0.234375 0.765625
vt 0.25 0.765625
vt 0.640625 0.875
vt 0.640625 0.90625
vt 0.703125 0.90625
vt 0.703125 0.875
vt 0.546875 0.875
vt 0.546875 0.90625
vt 0.796875 0.875
vt 0.796875 0.90625
vt 0.859375 0.90625
vt 0.859375 0.875
vt 0.703125 1
vt 0.640625 1
vt 0.765625 0.90625
vt 0.765625 1

vn 0 0 -1
vn 1 0 0
vn 0 0 1
vn -1 0 0
vn 0 1 0
vn 0 -1 0
vn 0 -0.6819973 -0.7313547
vn 0 0.6819972 0.7313548
vn 0 0.7313535 -0.6819986
vn 0 -0.7313534 0.6819987
vn 0.707107 -0.7071066 0
vn -0.7071071 0.7071065 0
vn 0.707105 0.7071086 0
vn -0.7071052 -0.7071084 0
vn 0 0.6018151 -0.7986355
vn 0 -0.6018153 0.7986354
vn 0 0.7986358 0.6018147
vn 0 -0.7986356 -0.6018149
vn 0 0.4617483 -0.887011
vn 0 -0.4617487 0.8870108
vn 0 0.8870103 0.4617496
vn 0 -0.8870106 -0.4617488
vn 0 -0.08715602 -0.9961947
vn 0 0.08715566 0.9961947
vn 0 0.9961945 -0.08715817
vn 0 -0.9961947 0.08715636
vn -0.1908091 0 -0.9816272
vn 0.9816272 0 -0.190809
vn 0.190809 0 0.9816272
vn -0.9816272 0 0.190809
vn 0.1908091 0 -0.9816272
vn 0.9816272 0 0.190809
vn -0.1908086 0 0.9816273
vn -0.9816272 0 -0.190809
vn 0.8090169 -0.5877854 0
vn -0.8090153 0.5877876 0
vn 0.5877842 0.8090178 0
vn -0.5877873 -0.8090155 0
vn 0.8090154 0.5877874 0
vn -0.809017 -0.5877853 0
vn -0.5877842 0.8090178 0
vn 0.5877873 -0.8090155 0

usemtl holographic_em.png
f 12/17/7 11/16/7 10/15/7 9/14/7
f 9/14/8 10/15/8 14/19/8 13/18/8
f 13/23/9 14/22/9 16/21/9 15/20/9
f 15/20/10 16/21/10 11/16/10 12/17/10
f 14/25/11 10/15/11 11/16/11 16/24/11
f 9/16/12 13/24/12 15/27/12 12/26/12
f 20/31/7 19/30/7 18/29/7 17/28/7
f 17/28/8 18/29/8 22/33/8 21/32/8
f 21/37/9 22/36/9 24/35/9 23/34/9
f 23/34/10 24/35/10 19/30/10 20/31/10
f 22/39/11 18/29/11 19/30/11 24/38/11
f 17/30/12 21/38/12 23/41/12 20/40/12
f 28/45/7 27/44/7 26/43/7 25/42/7
f 25/42/8 26/43/8 30/47/8 29/46/8
f 29/51/9 30/50/9 32/49/9 31/48/9
f 31/48/10 32/49/10 27/44/10 28/45/10
f 30/53/11 26/43/11 27/44/11 32/52/11
f 25/44/12 29/52/12 31/55/12 28/54/12
f 36/59/7 35/58/7 34/57/7 33/56/7
f 33/56/8 34/57/8 38/61/8 37/60/8
f 37/65/9 38/64/9 40/63/9 39/62/9
f 39/62/10 40/63/10 35/58/10 36/59/10
f 38/67/11 34/57/11 35/58/11 40/66/11
f 33/58/12 37/66/12 39/69/12 36/68/12
f 44/73/13 43/72/13 42/71/13 41/70/13
f 41/70/8 42/71/8 45/75/8 38/74/8
f 38/79/14 45/78/14 46/77/14 40/76/14
f 40/76/10 46/77/10 43/72/10 44/73/10
f 45/81/15 42/71/15 43/72/15 46/80/15
f 41/72/16 38/80/16 40/83/16 44/82/16
f 50/87/7 49/86/7 48/85/7 47/84/7
f 47/84/8 48/85/8 52/89/8 51/88/8
f 51/93/9 52/92/9 54/91/9 53/90/9
f 53/90/10 54/91/10 49/86/10 50/87/10
f 52/95/11 48/85/11 49/86/11 54/94/11
f 47/86/12 51/94/12 53/97/12 50/96/12
f 49/101/7 57/100/7 56/99/7 55/98/7
f 55/98/17 56/99/17 59/103/17 58/102/17
f 58/107/9 59/106/9 60/105/9 54/104/9
f 54/104/18 60/105/18 57/100/18 49/101/18
f 59/109/19 56/99/19 57/100/19 60/108/19
f 55/100/20 58/108/20 54/111/20 49/110/20
f 64/108/7 63/113/7 62/112/7 61/109/7
f 61/109/19 62/112/19 66/115/19 65/114/19
f 65/119/9 66/118/9 68/117/9 67/116/9
f 67/116/20 68/117/20 63/113/20 64/108/20
f 66/121/18 62/112/18 63/113/18 68/120/18
f 61/113/17 65/120/17 67/123/17 64/122/17
f 72/127/7 71/126/7 70/125/7 69/124/7
f 69/124/8 70/125/8 74/129/8 73/128/8
f 73/133/9 74/132/9 76/131/9 75/130/9
f 75/130/10 76/131/10 71/126/10 72/127/10
f 74/135/11 70/125/11 71/126/11 76/134/11
f 69/126/12 73/134/12 75/137/12 72/136/12
f 27/141/21 78/140/21 77/139/21 26/138/21
f 26/138/8 77/139/8 80/143/8 79/142/8
f 79/147/22 80/146/22 82/145/22 81/144/22
f 81/144/10 82/145/10 78/140/10 27/141/10
f 80/149/23 77/139/23 78/140/23 82/148/23
f 26/140/24 79/148/24 81/151/24 27/150/24
f 86/155/21 85/154/21 84/153/21 83/152/21
f 83/152/8 84/153/8 88/157/8 87/156/8
f 87/161/22 88/160/22 90/159/22 89/158/22
f 89/158/10 90/159/10 85/154/10 86/155/10
f 88/162/23 84/153/23 85/154/23 90/28/23
f 83/154/24 87/28/24 89/31/24 86/163/24
f 93/167/7 92/166/7 61/165/7 91/164/7
f 91/164/8 61/165/8 65/169/8 94/168/8
f 94/173/9 65/172/9 96/171/9 95/170/9
f 95/170/10 96/171/10 92/166/10 93/167/10
f 65/175/11 61/165/11 92/166/11 96/174/11
f 91/166/12 94/174/12 95/177/12 93/176/12
f 100/181/13 99/180/13 98/179/13 97/178/13
f 97/178/8 98/179/8 102/183/8 101/182/8
f 101/187/14 102/186/14 104/185/14 103/184/14
f 103/184/10 104/185/10 99/180/10 100/181/10
f 102/189/15 98/179/15 99/180/15 104/188/15
f 97/180/16 101/188/16 103/191/16 100/190/16
f 108/195/7 107/194/7 106/193/7 105/192/7
f 105/192/8 106/193/8 101/197/8 109/196/8
f 109/201/9 101/200/9 103/199/9 110/198/9
f 110/198/10 103/199/10 107/194/10 108/195/10
f 101/203/11 106/193/11 107/194/11 103/202/11
f 105/194/12 109/202/12 110/205/12 108/204/12
f 114/209/25 113/208/25 112/207/25 111/206/25
f 111/206/8 112/207/8 116/211/8 115/210/8
f 115/215/26 116/214/26 118/213/26 117/212/26
f 117/212/10 118/213/10 113/208/10 114/209/10
f 116/217/27 112/207/27 113/208/27 118/216/27
f 111/208/28 115/216/28 117/219/28 114/218/28
f 120/223/7 86/222/7 83/221/7 119/220/7
f 119/220/8 83/221/8 122/225/8 121/224/8
f 121/229/9 122/228/9 124/227/9 123/226/9
f 123/226/10 124/227/10 86/222/10 120/223/10
f 122/231/11 83/221/11 86/222/11 124/230/11
f 119/222/12 121/230/12 123/233/12 120/232/12
f 128/237/7 127/236/7 126/235/7 125/234/7
f 125/234/8 126/235/8 130/239/8 129/238/8
f 129/224/9 130/242/9 132/241/9 131/240/9
f 131/240/10 132/241/10 127/236/10 128/237/10
f 130/244/11 126/235/11 127/236/11 132/243/11
f 125/236/12 129/243/12 131/246/12 128/245/12
f 136/250/7 135/249/7 134/248/7 133/247/7
f 133/247/8 134/248/8 138/156/8 137/251/8
f 137/255/9 138/254/9 140/253/9 139/252/9
f 139/252/10 140/253/10 135/249/10 136/250/10
f 138/257/11 134/248/11 135/249/11 140/256/11
f 133/249/12 137/256/12 139/259/12 136/258/12
f 144/263/29 143/262/29 142/261/29 141/260/29
f 141/260/8 142/261/8 146/265/8 145/264/8
f 145/269/30 146/268/30 148/267/30 147/266/30
f 147/266/10 148/267/10 143/262/10 144/263/10
f 146/271/31 142/261/31 143/262/31 148/270/31
f 141/262/32 145/270/32 147/87/32 144/272/32
f 152/276/29 151/275/29 150/274/29 149/273/29
f 149/273/8 150/274/8 154/278/8 153/277/8
f 153/282/30 154/281/30 156/280/30 155/279/30
f 155/279/10 156/280/10 151/275/10 152/276/10
f 154/284/31 150/274/31 151/275/31 156/283/31
f 149/275/32 153/283/32 155/286/32 152/285/32
f 160/290/29 159/289/29 158/288/29 157/287/29
f 157/287/8 158/288/8 162/291/8 161/176/8
f 161/172/30 162/294/30 164/293/30 163/292/30
f 163/292/10 164/293/10 159/289/10 160/290/10
f 162/295/31 158/288/31 159/289/31 164/181/31
f 157/289/32 161/181/32 163/184/32 160/296/32
f 168/300/29 167/299/29 166/298/29 165/297/29
f 165/297/8 166/298/8 170/301/8 169/169/8
f 169/165/30 170/304/30 172/303/30 171/302/30
f 171/302/10 172/303/10 167/299/10 168/300/10
f 170/305/31 166/298/31 167/299/31 172/209/31
f 165/299/32 169/209/32 171/212/32 168/306/32
f 176/309/33 175/308/33 174/255/33 173/307/33
f 173/307/34 174/255/34 178/55/34 177/310/34
f 177/314/35 178/313/35 180/312/35 179/311/35
f 179/311/36 180/312/36 175/308/36 176/309/36
f 178/316/11 174/255/11 175/308/11 180/315/11
f 173/308/12 177/315/12 179/318/12 176/317/12
f 184/322/37 183/321/37 182/320/37 181/319/37
f 181/319/38 182/320/38 186/324/38 185/323/38
f 185/327/39 186/326/39 188/70/39 187/325/39
f 187/325/40 188/70/40 183/321/40 184/322/40
f 186/328/11 182/320/11 183/321/11 188/164/11
f 181/321/12 185/164/12 187/329/12 184/74/12
f 192/333/33 191/332/33 190/331/33 189/330/33
f 189/330/34 190/331/34 194/335/34 193/334/34
f 193/339/35 194/338/35 196/337/35 195/336/35
f 195/336/36 196/337/36 191/332/36 192/333/36
f 194/273/11 190/331/11 191/332/11 196/276/11
f 189/332/12 193/276/12 195/341/12 192/340/12
f 200/345/37 199/344/37 198/343/37 197/342/37
f 197/342/38 198/343/38 202/347/38 201/346/38
f 201/351/39 202/350/39 196/349/39 195/348/39
f 195/348/40 196/349/40 199/344/40 200/345/40
f 202/352/11 198/343/11 199/344/11 196/192/11
f 197/344/12 201/192/12 195/195/12 200/349/12
f 206/356/7 205/355/7 204/354/7 203/353/7
f 203/353/8 204/354/8 208/323/8 207/357/8
f 207/360/9 208/250/9 210/359/9 209/358/9
f 209/358/10 210/359/10 205/355/10 206/356/10
f 208/362/11 204/354/11 205/355/11 210/361/11
f 203/355/12 207/361/12 209/363/12 206/251/12
f 214/367/7 213/366/7 212/365/7 211/364/7
f 211/364/41 212/365/41 216/369/41 215/368/41
f 215/372/9 216/371/9 218/370/9 217/135/9
f 217/135/42 218/370/42 213/366/42 214/367/42
f 216/374/43 212/365/43 213/366/43 218/373/43
f 211/366/44 215/373/44 217/376/44 214/375/44
f 222/246/7 221/378/7 220/377/7 219/243/7
f 219/243/45 220/377/45 224/380/45 223/379/45
f 223/365/9 224/107/9 226/104/9 225/381/9
f 225/381/46 226/104/46 221/378/46 222/246/46
f 224/353/47 220/377/47 221/378/47 226/382/47
f 219/378/48 223/382/48 225/383/48 222/102/48
f 230/387/7 229/386/7 228/385/7 227/384/7
f 227/384/8 228/385/8 232/389/8 231/388/8
f 231/393/9 232/392/9 234/391/9 233/390/9
f 233/390/10 234/391/10 229/386/10 230/387/10
f 232/395/11 228/385/11 229/386/11 234/394/11
f 227/386/12 231/394/12 233/397/12 230/396/12

g reticle_1
v 0.03125 2.115625 -0.59375
v 0.03125 2.178125 -0.59375
v -0.03125 2.178125 -0.59375
v -0.03125 2.115625 -0.59375
v 0.03125 2.115625 -0.53125
v 0.03125 2.178125 -0.53125
v -0.03125 2.115625 -0.53125
v -0.03125 2.178125 -0.53125

vt 0.515625 0.4375
vt 0.515625 0.453125
vt 0.53125 0.453125
vt 0.53125 0.4375
vt 0.5 0.4375
vt 0.5 0.453125
vt 0.546875 0.4375
vt 0.546875 0.453125
vt 0.5625 0.453125
vt 0.5625 0.4375
vt 0.53125 0.46875
vt 0.515625 0.46875
vt 0.546875 0.46875

vn 0 0 -1
vn 1 0 0
vn 0 0 1
vn -1 0 0
vn 0 1 0
vn 0 -1 0

usemtl holographic_em.png
f 238/401/49 237/400/49 236/399/49 235/398/49
f 235/398/50 236/399/50 240/403/50 239/402/50
f 239/407/51 240/406/51 242/405/51 241/404/51
f 241/404/52 242/405/52 237/400/52 238/401/52
f 240/409/53 236/399/53 237/400/53 242/408/53
f 235/400/54 239/408/54 241/410/54 238/405/54

