# ProBuilder 6.0.5
# https://unity3d.com/unity/features/worldbuilding/probuilder
# 31.05.2025 18:15:49

mtllib ./ak_romgrip.mtl
o ak romgrip

g _ca_grip_1
v 0.03125 1.2125 0.1265625
v 0.03125 1.275 0.1265625
v -0.03125 1.275 0.1265625
v -0.03125 1.2125 0.1265625
v 0.03125 1.2125 0.1890625
v 0.03125 1.275 0.1890625
v -0.03125 1.2125 0.1890625
v -0.03125 1.275 0.1890625

vt 0.144 0.572
vt 0.144 0.576
vt 0.148 0.576
vt 0.148 0.572
vt 0.14 0.572
vt 0.14 0.576
vt 0.152 0.572
vt 0.152 0.576
vt 0.156 0.576
vt 0.156 0.572
vt 0.148 0.58
vt 0.144 0.58
vt 0.152 0.58

vn 0 0 -1
vn 1 0 0
vn 0 0 1
vn -1 0 0
vn 0 1 0
vn 0 -1 0

usemtl ak_romgrip.png
f 4/4/1 3/3/1 2/2/1 1/1/1
f 1/1/2 2/2/2 6/6/2 5/5/2
f 5/10/3 6/9/3 8/8/3 7/7/3
f 7/7/4 8/8/4 3/3/4 4/4/4
f 6/12/5 2/2/5 3/3/5 8/11/5
f 1/3/6 5/11/6 7/13/6 4/8/6

g ak_romgrip_17
v 0.1499375 1.437446 0.0565464
v 0.1499375 1.487261 0.01900819
v -0.1499375 1.487261 0.01900819
v -0.1499375 1.437446 0.0565464
v 0.1499375 1.512598 0.156276
v 0.1499375 1.562413 0.1187378
v -0.1499375 1.512598 0.156276
v -0.1499375 1.562413 0.1187378
v 0.1500625 1.506202 0.07550359
v 0.1500625 1.358033 0.4939187
v -0.1500625 1.358033 0.4939187
v -0.1500625 1.506202 0.07550359
v 0.1500625 1.329339 0.01287317
v 0.1500625 1.18117 0.4312881
v -0.1500625 1.329339 0.01287317
v -0.1500625 1.18117 0.4312881
v 0.15 1.36875 0.1187501
v -0.15 1.36875 0.1187501
v 0.15 1.36875 0.5718751
v 0.15 1.5625 0.5718751
v -0.15 1.36875 0.5718751
v -0.15 1.5625 0.5718751
v 0.1500625 1.2265 0.5093126
v 0.1500625 1.375063 0.5093126
v -0.1500625 1.375063 0.5093126
v -0.1500625 1.2265 0.5093126
v 0.1500625 1.2265 0.5719376
v 0.1500625 1.375063 0.5719376
v -0.1500625 1.2265 0.5719376
v -0.1500625 1.375063 0.5719376
v 0.15 1.18125 0.4312501
v 0.15 1.375 0.4312501
v -0.15 1.375 0.4312501
v -0.15 1.18125 0.4312501
v 0.15 1.18125 0.5562501
v 0.15 1.375 0.5562501
v -0.15 1.18125 0.5562501
v -0.15 1.375 0.5562501
v 0.150125 1.399875 -0.5063748
v 0.150125 1.531375 -0.5063748
v -0.150125 1.531375 -0.5063748
v -0.150125 1.399875 -0.5063748
v 0.150125 1.399875 0.118875
v 0.150125 1.531375 0.118875
v -0.150125 1.399875 0.118875
v -0.150125 1.531375 0.118875
v 0.0938125 1.07863 -0.1823998
v 0.0938125 1.392661 -0.1270278
v -0.09693749 1.392661 -0.1270278
v -0.09693749 1.07863 -0.1823998
v 0.0938125 1.02977 0.09470032
v 0.0938125 1.343801 0.1500726
v -0.09693749 1.02977 0.09470032
v -0.09693749 1.343801 0.1500726
v 0.09375 1.267628 0.02808119
v 0.09375 1.395753 0.2500001
v -0.096875 1.395753 0.2500001
v -0.096875 1.267628 0.02808119
v 0.09375 1.159375 0.0905812
v 0.09375 1.2875 0.3125001
v -0.096875 1.159375 0.0905812
v -0.096875 1.2875 0.3125001
v 0.09375 1.454199 -0.2883279
v 0.09375 1.335876 -0.06103134
v -0.096875 1.335876 -0.06103134
v -0.096875 1.454199 -0.2883279
v 0.09375 1.343323 -0.3460464
v 0.09375 1.225 -0.1187499
v -0.096875 1.343323 -0.3460464
v -0.096875 1.225 -0.1187499
v 0.09387501 0.786583 -0.3121524
v 0.09387501 1.139043 -0.1661587
v -0.09699999 1.139043 -0.1661587
v -0.09699999 0.786583 -0.3121524
v 0.09387501 0.6788576 -0.0520804
v 0.09387501 1.031318 0.09391334
v -0.09699999 0.6788576 -0.0520804
v -0.09699999 1.031318 0.09391334
v 0.15 1.49375 -0.2718749
v 0.15 1.5625 -0.2718749
v -0.15 1.5625 -0.2718749
v -0.15 1.49375 -0.2718749
v 0.15 1.49375 -0.1156249
v 0.15 1.5625 -0.1156249
v -0.15 1.49375 -0.1156249
v -0.15 1.5625 -0.1156249
v 0.1499375 1.512598 -0.5437758
v 0.1499375 1.562413 -0.5062375
v -0.1499375 1.562413 -0.5062375
v -0.1499375 1.512598 -0.5437758
v 0.1499375 1.437446 -0.4440463
v 0.1499375 1.487261 -0.406508
v -0.1499375 1.437446 -0.4440463
v -0.1499375 1.487261 -0.406508
v 0.15 1.36875 -0.6312499
v 0.15 1.5625 -0.6312499
v -0.15 1.5625 -0.6312499
v -0.15 1.36875 -0.6312499
v 0.15 1.36875 -0.5062499
v -0.15 1.36875 -0.5062499
v 0.1499375 1.315017 0.2482978
v -0.1499375 1.315017 0.2482978
v 0.1499375 1.392872 0.2530596
v 0.1499375 1.446663 -0.6264219
v -0.1499375 1.392872 0.2530596
v -0.1499375 1.446663 -0.6264219
v -0.0328913 1.301127 0.2475109
v -0.03289133 1.354831 -0.6305358
v -0.07201155 1.306179 -0.6335115
v -0.07201152 1.252475 0.2445352
v -0.1108797 1.363603 0.251332
v -0.1108798 1.417306 -0.6267147
v -0.15 1.314951 0.2483563
v -0.15 1.368655 -0.6296902
v 0.07187501 1.24482 0.3731233
v 0.07187501 1.30625 -0.6312499
v -0.07187499 1.30625 -0.6312499
v -0.07187499 1.24482 0.3731233
v 0.07187501 1.385183 0.3817083
v 0.07187501 1.446613 -0.6226649
v -0.07187499 1.385183 0.3817083
v -0.07187499 1.446613 -0.6226649
v 0.07201152 1.252475 0.2445352
v 0.07201155 1.306179 -0.6335115
v 0.03289132 1.354831 -0.6305358
v 0.03289129 1.301127 0.2475109
v 0.15 1.314951 0.2483563
v 0.15 1.368655 -0.6296902
v 0.1108797 1.363603 0.251332
v 0.1108798 1.417306 -0.6267147

vt 0.14 0.76
vt 0.14 0.764
vt 0.156 0.764
vt 0.156 0.76
vt 0.132 0.76
vt 0.132 0.764
vt 0.164 0.76
vt 0.164 0.764
vt 0.18 0.764
vt 0.18 0.76
vt 0.156 0.772
vt 0.14 0.772
vt 0.172 0.764
vt 0.172 0.772
vt 0.076 0.824
vt 0.076 0.852
vt 0.092 0.852
vt 0.092 0.824
vt 0.064 0.824
vt 0.064 0.852
vt 0.104 0.824
vt 0.104 0.852
vt 0.12 0.852
vt 0.12 0.824
vt 0.092 0.864
vt 0.076 0.864
vt 0.108 0.852
vt 0.108 0.864
vt 0.316 0.892
vt 0.316 0.904
vt 0.332 0.904
vt 0.332 0.892
vt 0.288 0.892
vt 0.288 0.904
vt 0.36 0.892
vt 0.36 0.904
vt 0.376 0.904
vt 0.376 0.892
vt 0.332 0.932
vt 0.316 0.932
vt 0.348 0.904
vt 0.348 0.932
vt 0.136 0.74
vt 0.136 0.748
vt 0.152 0.748
vt 0.152 0.74
vt 0.132 0.74
vt 0.132 0.748
vt 0.156 0.74
vt 0.156 0.748
vt 0.172 0.748
vt 0.172 0.74
vt 0.152 0.752
vt 0.136 0.752
vt 0.168 0.748
vt 0.168 0.752
vt 0.14 0.788
vt 0.14 0.8
vt 0.156 0.8
vt 0.156 0.788
vt 0.132 0.788
vt 0.132 0.8
vt 0.164 0.788
vt 0.164 0.8
vt 0.18 0.8
vt 0.18 0.788
vt 0.156 0.808
vt 0.14 0.808
vt 0.172 0.8
vt 0.172 0.808
vt 0.404 0.404
vt 0.404 0.412
vt 0.42 0.412
vt 0.42 0.404
vt 0.364 0.404
vt 0.364 0.412
vt 0.46 0.404
vt 0.46 0.412
vt 0.476 0.412
vt 0.476 0.404
vt 0.42 0.452
vt 0.404 0.452
vt 0.436 0.412
vt 0.436 0.452
vt 0.616 0.3
vt 0.616 0.32
vt 0.628 0.32
vt 0.628 0.3
vt 0.6 0.3
vt 0.6 0.32
vt 0.644 0.3
vt 0.644 0.32
vt 0.656 0.32
vt 0.656 0.3
vt 0.628 0.336
vt 0.616 0.336
vt 0.64 0.32
vt 0.64 0.336
vt 0.676 0.328
vt 0.676 0.344
vt 0.688 0.344
vt 0.688 0.328
vt 0.668 0.328
vt 0.668 0.344
vt 0.696 0.328
vt 0.696 0.344
vt 0.708 0.344
vt 0.708 0.328
vt 0.688 0.352
vt 0.676 0.352
vt 0.7 0.344
vt 0.7 0.352
vt 0.72 0.312
vt 0.72 0.328
vt 0.732 0.328
vt 0.732 0.312
vt 0.712 0.312
vt 0.712 0.328
vt 0.74 0.312
vt 0.74 0.328
vt 0.752 0.328
vt 0.752 0.312
vt 0.732 0.336
vt 0.72 0.336
vt 0.744 0.328
vt 0.744 0.336
vt 0.672 0.264
vt 0.672 0.288
vt 0.684 0.288
vt 0.684 0.264
vt 0.656 0.264
vt 0.656 0.288
vt 0.7 0.264
vt 0.7 0.288
vt 0.712 0.288
vt 0.712 0.264
vt 0.684 0.304
vt 0.672 0.304
vt 0.696 0.288
vt 0.696 0.304
vt 0.34 0.736
vt 0.34 0.74
vt 0.356 0.74
vt 0.356 0.736
vt 0.332 0.736
vt 0.332 0.74
vt 0.364 0.736
vt 0.364 0.74
vt 0.38 0.74
vt 0.38 0.736
vt 0.356 0.748
vt 0.34 0.748
vt 0.372 0.74
vt 0.372 0.748
vt 0.24 0.852
vt 0.24 0.856
vt 0.256 0.856
vt 0.256 0.852
vt 0.232 0.852
vt 0.232 0.856
vt 0.264 0.852
vt 0.264 0.856
vt 0.28 0.856
vt 0.28 0.852
vt 0.256 0.864
vt 0.24 0.864
vt 0.272 0.856
vt 0.272 0.864
vt 0.34 0.728
vt 0.356 0.728
vt 0.332 0.728
vt 0.364 0.728
vt 0.38 0.728
vt 0.3 0.48
vt 0.3 0.536
vt 0.316 0.536
vt 0.316 0.48
vt 0.296 0.48
vt 0.296 0.536
vt 0.32 0.48
vt 0.32 0.536
vt 0.336 0.536
vt 0.336 0.48
vt 0.316 0.54
vt 0.3 0.54
vt 0.332 0.536
vt 0.332 0.54
vt 0.12 0.552
vt 0.12 0.608
vt 0.124 0.608
vt 0.124 0.552
vt 0.116 0.552
vt 0.116 0.608
vt 0.128 0.552
vt 0.128 0.608
vt 0.132 0.608
vt 0.132 0.552
vt 0.124 0.612
vt 0.12 0.612
vt 0.128 0.612
vt 0.344 0.808
vt 0.344 0.872
vt 0.352 0.872
vt 0.352 0.808
vt 0.336 0.808
vt 0.336 0.872
vt 0.36 0.808
vt 0.36 0.872
vt 0.368 0.872
vt 0.368 0.808
vt 0.352 0.88
vt 0.344 0.88
vt 0.36 0.88
vt 0.068 0.552
vt 0.068 0.608
vt 0.072 0.608
vt 0.072 0.552
vt 0.064 0.552
vt 0.064 0.608
vt 0.076 0.552
vt 0.076 0.608
vt 0.08 0.608
vt 0.08 0.552
vt 0.072 0.612
vt 0.068 0.612
vt 0.076 0.612

vn 0 -0.601815 -0.7986355
vn 1 0 0
vn 0 0.601815 0.7986355
vn -1 0 0
vn 0 0.7986355 -0.601815
vn 0 -0.7986355 0.601815
vn 0 0.9426414 0.3338069
vn 0 -0.9426415 -0.3338069
vn 0 -0.3338069 0.9426415
vn 0 0.3338065 -0.9426416
vn 0 -3.587097E-08 -1
vn 0 3.587097E-08 1
vn 0 1 4.760238E-08
vn 0 -1 -4.760238E-08
vn 0 0.173648 -0.9848078
vn 0 -0.1736488 0.9848076
vn 0 0.9848078 0.1736483
vn 0 -0.9848077 -0.1736485
vn 0 0.8660254 -0.5
vn 0 -0.8660252 0.5000005
vn 0 0.5000003 0.8660252
vn 0 -0.4999999 -0.8660254
vn 0 0.8870109 0.4617485
vn 0 -0.8870108 -0.4617486
vn 0 -0.4617484 0.8870109
vn 0 0.4617482 -0.887011
vn 0 0.3826834 -0.9238796
vn 0 -0.3826835 0.9238794
vn 0 0.9238795 0.3826835
vn 0 -0.9238795 -0.3826835
vn 0 0.6018154 -0.7986352
vn 0 -0.6018158 0.7986349
vn 0 0.7986352 0.6018155
vn 0 -0.7986352 -0.6018154
vn 0 -0.9981348 -0.06104833
vn 0 0.9981348 0.06104855
vn 0 0.06104757 -0.9981349
vn 0 -0.06104893 0.9981348
vn 0.7798841 -0.6247565 -0.03821176
vn 0.6259235 0.7784298 0.04761076
vn -0.7798847 0.6247557 0.03821171
vn -0.6259234 -0.7784299 -0.04761082
vn -0.7798843 -0.6247562 -0.03821175
vn 0.6259233 -0.77843 -0.04761083
vn 0.7798845 0.624756 0.03821171
vn -0.6259237 0.7784296 0.04761073

usemtl ak_romgrip.png
f 12/17/7 11/16/7 10/15/7 9/14/7
f 9/14/8 10/15/8 14/19/8 13/18/8
f 13/23/9 14/22/9 16/21/9 15/20/9
f 15/20/10 16/21/10 11/16/10 12/17/10
f 14/25/11 10/15/11 11/16/11 16/24/11
f 9/16/12 13/24/12 15/27/12 12/26/12
f 20/31/13 19/30/13 18/29/13 17/28/13
f 17/28/8 18/29/8 22/33/8 21/32/8
f 21/37/14 22/36/14 24/35/14 23/34/14
f 23/34/10 24/35/10 19/30/10 20/31/10
f 22/39/15 18/29/15 19/30/15 24/38/15
f 17/30/16 21/38/16 23/41/16 20/40/16
f 26/45/17 16/44/17 14/43/17 25/42/17
f 25/42/8 14/43/8 28/47/8 27/46/8
f 27/51/18 28/50/18 30/49/18 29/48/18
f 29/48/10 30/49/10 16/44/10 26/45/10
f 28/53/19 14/43/19 16/44/19 30/52/19
f 25/44/20 27/52/20 29/55/20 26/54/20
f 34/59/17 33/58/17 32/57/17 31/56/17
f 31/56/8 32/57/8 36/61/8 35/60/8
f 35/65/18 36/64/18 38/63/18 37/62/18
f 37/62/10 38/63/10 33/58/10 34/59/10
f 36/67/19 32/57/19 33/58/19 38/66/19
f 31/58/20 35/66/20 37/69/20 34/68/20
f 42/73/17 41/72/17 40/71/17 39/70/17
f 39/70/8 40/71/8 44/75/8 43/74/8
f 43/79/18 44/78/18 46/77/18 45/76/18
f 45/76/10 46/77/10 41/72/10 42/73/10
f 44/81/19 40/71/19 41/72/19 46/80/19
f 39/72/20 43/80/20 45/83/20 42/82/20
f 50/87/17 49/86/17 48/85/17 47/84/17
f 47/84/8 48/85/8 52/89/8 51/88/8
f 51/93/18 52/92/18 54/91/18 53/90/18
f 53/90/10 54/91/10 49/86/10 50/87/10
f 52/95/19 48/85/19 49/86/19 54/94/19
f 47/86/20 51/94/20 53/97/20 50/96/20
f 58/101/21 57/100/21 56/99/21 55/98/21
f 55/98/8 56/99/8 60/103/8 59/102/8
f 59/107/22 60/106/22 62/105/22 61/104/22
f 61/104/10 62/105/10 57/100/10 58/101/10
f 60/109/23 56/99/23 57/100/23 62/108/23
f 55/100/24 59/108/24 61/111/24 58/110/24
f 66/115/25 65/114/25 64/113/25 63/112/25
f 63/112/8 64/113/8 68/117/8 67/116/8
f 67/121/26 68/120/26 70/119/26 69/118/26
f 69/118/10 70/119/10 65/114/10 66/115/10
f 68/123/27 64/113/27 65/114/27 70/122/27
f 63/114/28 67/122/28 69/125/28 66/124/28
f 74/129/29 73/128/29 72/127/29 71/126/29
f 71/126/8 72/127/8 76/131/8 75/130/8
f 75/135/30 76/134/30 78/133/30 77/132/30
f 77/132/10 78/133/10 73/128/10 74/129/10
f 76/137/31 72/127/31 73/128/31 78/136/31
f 71/128/32 75/136/32 77/139/32 74/138/32
f 82/143/33 81/142/33 80/141/33 79/140/33
f 79/140/8 80/141/8 84/145/8 83/144/8
f 83/149/34 84/148/34 86/147/34 85/146/34
f 85/146/10 86/147/10 81/142/10 82/143/10
f 84/151/35 80/141/35 81/142/35 86/150/35
f 79/142/36 83/150/36 85/153/36 82/152/36
f 90/157/17 89/156/17 88/155/17 87/154/17
f 87/154/8 88/155/8 92/159/8 91/158/8
f 91/163/18 92/162/18 94/161/18 93/160/18
f 93/160/10 94/161/10 89/156/10 90/157/10
f 92/165/19 88/155/19 89/156/19 94/164/19
f 87/156/20 91/164/20 93/167/20 90/166/20
f 98/171/37 97/170/37 96/169/37 95/168/37
f 95/168/8 96/169/8 100/173/8 99/172/8
f 99/177/38 100/176/38 102/175/38 101/174/38
f 101/174/10 102/175/10 97/170/10 98/171/10
f 100/179/39 96/169/39 97/170/39 102/178/39
f 95/170/40 99/178/40 101/181/40 98/180/40
f 106/183/17 105/156/17 104/155/17 103/182/17
f 103/182/8 104/155/8 96/159/8 107/184/8
f 107/186/18 96/162/18 97/161/18 108/185/18
f 108/185/10 97/161/10 105/156/10 106/183/10
f 96/165/19 104/155/19 105/156/19 97/164/19
f 103/156/20 107/164/20 108/167/20 106/166/20
f 110/190/41 106/189/41 103/188/41 109/187/41
f 109/187/8 103/188/8 112/192/8 111/191/8
f 111/196/42 112/195/42 114/194/42 113/193/42
f 113/193/10 114/194/10 106/189/10 110/190/10
f 112/198/43 103/188/43 106/189/43 114/197/43
f 109/189/44 111/197/44 113/200/44 110/199/44
f 118/204/45 117/203/45 116/202/45 115/201/45
f 115/201/46 116/202/46 120/206/46 119/205/46
f 119/210/47 120/209/47 122/208/47 121/207/47
f 121/207/48 122/208/48 117/203/48 118/204/48
f 120/212/43 116/202/43 117/203/43 122/211/43
f 115/203/44 119/211/44 121/213/44 118/208/44
f 126/217/41 125/216/41 124/215/41 123/214/41
f 123/214/8 124/215/8 128/219/8 127/218/8
f 127/223/42 128/222/42 130/221/42 129/220/42
f 129/220/10 130/221/10 125/216/10 126/217/10
f 128/225/43 124/215/43 125/216/43 130/224/43
f 123/216/44 127/224/44 129/226/44 126/221/44
f 134/230/49 133/229/49 132/228/49 131/227/49
f 131/227/50 132/228/50 136/232/50 135/231/50
f 135/236/51 136/235/51 138/234/51 137/233/51
f 137/233/52 138/234/52 133/229/52 134/230/52
f 136/238/43 132/228/43 133/229/43 138/237/43
f 131/229/44 135/237/44 137/239/44 134/234/44

