# ProBuilder 6.0.5
# https://unity3d.com/unity/features/worldbuilding/probuilder
# 31.05.2025 18:17:03

mtllib ./glock_stock.mtl
o glock stock

g _ca_stock_1
v 0.03125 0.36875 0.4828125
v 0.03125 0.43125 0.4828125
v -0.03125 0.43125 0.4828125
v -0.03125 0.36875 0.4828125
v 0.03125 0.36875 0.5453125
v 0.03125 0.43125 0.5453125
v -0.03125 0.36875 0.5453125
v -0.03125 0.43125 0.5453125

vt 0.140625 0.96875
vt 0.140625 0.984375
vt 0.15625 0.984375
vt 0.15625 0.96875
vt 0.125 0.96875
vt 0.125 0.984375
vt 0.171875 0.96875
vt 0.171875 0.984375
vt 0.1875 0.984375
vt 0.1875 0.96875
vt 0.15625 1
vt 0.140625 1
vt 0.171875 1

vn 0 0 -1
vn 1 0 0
vn 0 0 1
vn -1 0 0
vn 0 1 0
vn 0 -1 0

usemtl glockstock.png
f 4/4/1 3/3/1 2/2/1 1/1/1
f 1/1/2 2/2/2 6/6/2 5/5/2
f 5/10/3 6/9/3 8/8/3 7/7/3
f 7/7/4 8/8/4 3/3/4 4/4/4
f 6/12/5 2/2/5 3/3/5 8/11/5
f 1/3/6 5/11/6 7/13/6 4/8/6

g stock_12
v 0.0875 0.4854524 2.303759
v 0.0875 0.9300359 2.176277
v -0.0875 0.9300359 2.176277
v -0.0875 0.4854524 2.303759
v 0.0875 0.4923433 2.327791
v 0.0875 0.9369268 2.200309
v -0.0875 0.4923433 2.327791
v -0.0875 0.9369268 2.200309
v 0.08737499 0.2579375 0.5157499
v 0.08737499 0.3826874 0.5157499
v -0.087375 0.3826874 0.5157499
v -0.087375 0.2579375 0.5157499
v 0.08737499 0.2579375 0.8905001
v 0.08737499 0.3826874 0.8905
v -0.087375 0.2579375 0.8905001
v -0.087375 0.3826874 0.8905
v 0.08737499 0.3829375 1.01575
v 0.08737499 0.5389375 1.01575
v -0.087375 0.5389375 1.01575
v -0.087375 0.3829375 1.01575
v 0.08737499 0.3829375 2.703
v 0.08737499 0.5389375 2.703
v -0.087375 0.3829375 2.703
v -0.087375 0.5389375 2.703
v 0.08743749 0.3503355 0.8066673
v 0.08743749 0.5393546 1.014761
v -0.0874375 0.5393546 1.014761
v -0.0874375 0.3503355 0.8066673
v 0.08743749 0.4469199 1.098723
v -0.0874375 0.4469199 1.098723
v 0.118625 -0.3045624 2.70325
v 0.118625 0.7889375 2.70325
v -0.118625 0.7889375 2.70325
v -0.118625 -0.3045624 2.70325
v 0.118625 -0.3045624 2.79675
v 0.118625 0.7889375 2.79675
v -0.118625 -0.3045624 2.79675
v -0.118625 0.7889375 2.79675
v 0.1185625 -0.3044896 2.797051
v 0.1185625 0.5999283 2.745695
v -0.1185625 0.5999283 2.745695
v -0.1185625 -0.3044896 2.797051
v 0.1185625 -0.3009676 2.859076
v 0.1185625 0.6034504 2.80772
v -0.1185625 -0.3009676 2.859076
v -0.1185625 0.6034504 2.80772
v 0.1185 0.2913861 2.751396
v 0.1185 0.7887907 2.797101
v -0.1185 0.7887907 2.797101
v -0.1185 0.2913861 2.751396
v 0.1185 0.285713 2.813136
v 0.1185 0.7831175 2.858841
v -0.1185 0.285713 2.813136
v -0.1185 0.7831175 2.858841
v 0.08731251 0.4322473 2.628959
v 0.08731251 0.5302669 2.542238
v -0.0873125 0.5302669 2.542238
v -0.0873125 0.4322473 2.628959
v 0.08731251 0.5976539 2.815917
v 0.08731251 0.6956734 2.729197
v -0.0873125 0.5976539 2.815917
v -0.0873125 0.6956734 2.729197
v 0.08731251 0.3851641 2.524203
v 0.08731251 0.4910442 2.60113
v -0.0873125 0.4910442 2.60113
v -0.0873125 0.3851641 2.524203
v 0.08731251 0.2384382 2.726154
v 0.08731251 0.3443183 2.803081
v -0.0873125 0.2384382 2.726154
v -0.0873125 0.3443183 2.803081
v 0.118625 0.8829374 1.14075
v 0.118625 0.9451875 1.14075
v -0.118625 0.9451875 1.14075
v -0.118625 0.8829374 1.14075
v 0.118625 0.8829374 2.203
v 0.118625 0.9451875 2.203
v -0.118625 0.8829374 2.203
v -0.118625 0.9451875 2.203
v 0.08731251 0.4624924 1.261345
v 0.08731251 0.8826839 1.140857
v -0.0873125 0.8826839 1.140857
v -0.0873125 0.4624924 1.261345
v 0.08731251 0.4796164 1.321063
v 0.08731251 0.8998079 1.200575
v -0.0873125 0.4796164 1.321063
v -0.0873125 0.8998079 1.200575
v 0.08731251 0.4624925 2.198845
v 0.08731251 0.8826839 2.078357
v -0.0873125 0.8826839 2.078357
v -0.0873125 0.4624925 2.198845
v 0.08731251 0.4796164 2.258563
v 0.08731251 0.8998079 2.138075
v -0.0873125 0.4796164 2.258563
v -0.0873125 0.8998079 2.138075

vt 0.265625 0.734375
vt 0.265625 0.859375
vt 0.3125 0.859375
vt 0.3125 0.734375
vt 0.25 0.734375
vt 0.25 0.859375
vt 0.328125 0.734375
vt 0.328125 0.859375
vt 0.375 0.859375
vt 0.375 0.734375
vt 0.3125 0.875
vt 0.265625 0.875
vt 0.359375 0.859375
vt 0.359375 0.875
vt 0.21875 0.875
vt 0.21875 0.90625
vt 0.25 0.90625
vt 0.25 0.875
vt 0.125 0.875
vt 0.125 0.90625
vt 0.34375 0.875
vt 0.34375 0.90625
vt 0.375 0.90625
vt 0.375 0.875
vt 0.25 1
vt 0.21875 1
vt 0.28125 0.90625
vt 0.28125 1
vt 0.421875 0.546875
vt 0.421875 0.578125
vt 0.453125 0.578125
vt 0.453125 0.546875
vt 0 0.546875
vt 0 0.578125
vt 0.875 0.546875
vt 0.875 0.578125
vt 0.90625 0.578125
vt 0.90625 0.546875
vt 0.453125 1
vt 0.421875 1
vt 0.484375 0.578125
vt 0.484375 1
vt 0.3125 0.90625
vt 0.3125 0.96875
vt 0.34375 0.96875
vt 0.28125 0.96875
vt 0.375 0.96875
vt 0.40625 0.96875
vt 0.40625 0.90625
vt 0.34375 1
vt 0.3125 1
vt 0.375 1
vt 0.015625 0.71875
vt 0.015625 0.984375
vt 0.0625 0.984375
vt 0.0625 0.71875
vt 0 0.71875
vt 0 0.984375
vt 0.078125 0.71875
vt 0.078125 0.984375
vt 0.125 0.984375
vt 0.125 0.71875
vt 0.0625 1
vt 0.015625 1
vt 0.109375 0.984375
vt 0.109375 1
vt 0.140625 0.640625
vt 0.140625 0.859375
vt 0.1875 0.859375
vt 0.1875 0.640625
vt 0.125 0.640625
vt 0.125 0.859375
vt 0.203125 0.640625
vt 0.203125 0.859375
vt 0.25 0.640625
vt 0.1875 0.875
vt 0.140625 0.875
vt 0.234375 0.859375
vt 0.234375 0.875
vt 0.015625 0.40625
vt 0.015625 0.53125
vt 0.0625 0.53125
vt 0.0625 0.40625
vt 0 0.40625
vt 0 0.53125
vt 0.078125 0.40625
vt 0.078125 0.53125
vt 0.125 0.53125
vt 0.125 0.40625
vt 0.0625 0.546875
vt 0.015625 0.546875
vt 0.109375 0.53125
vt 0.109375 0.546875
vt 0.25 0.609375
vt 0.28125 0.640625
vt 0.28125 0.609375
vt 0.1875 0.609375
vt 0.34375 0.609375
vt 0.34375 0.640625
vt 0.375 0.640625
vt 0.375 0.609375
vt 0.28125 0.703125
vt 0.25 0.703125
vt 0.3125 0.640625
vt 0.3125 0.703125
vt 0.0625 0.609375
vt 0.0625 0.640625
vt 0.09375 0.640625
vt 0.09375 0.609375
vt 0 0.609375
vt 0 0.640625
vt 0.15625 0.609375
vt 0.15625 0.640625
vt 0.09375 0.703125
vt 0.0625 0.703125
vt 0.125 0.703125
vt 0.265625 0.265625
vt 0.265625 0.28125
vt 0.3125 0.28125
vt 0.3125 0.265625
vt 0 0.265625
vt 0 0.28125
vt 0.578125 0.265625
vt 0.578125 0.28125
vt 0.625 0.28125
vt 0.625 0.265625
vt 0.3125 0.546875
vt 0.265625 0.546875
vt 0.359375 0.28125
vt 0.359375 0.546875
vt 0.375 0.421875
vt 0.375 0.53125
vt 0.40625 0.53125
vt 0.40625 0.421875
vt 0.359375 0.421875
vt 0.359375 0.53125
vt 0.421875 0.421875
vt 0.421875 0.53125
vt 0.453125 0.53125
vt 0.453125 0.421875
vt 0.40625 0.546875
vt 0.375 0.546875
vt 0.4375 0.53125
vt 0.4375 0.546875
vt 0.140625 0.421875
vt 0.140625 0.53125
vt 0.171875 0.53125
vt 0.171875 0.421875
vt 0.125 0.421875
vt 0.1875 0.421875
vt 0.1875 0.53125
vt 0.21875 0.53125
vt 0.21875 0.421875
vt 0.171875 0.546875
vt 0.140625 0.546875
vt 0.203125 0.53125
vt 0.203125 0.546875

vn 0 -0.2756374 -0.9612617
vn 1 0 0
vn 0 0.2756374 0.9612617
vn -1 0 0
vn 0 0.9612617 -0.2756374
vn 0 -0.9612617 0.2756374
vn 0 -5.935966E-07 -1
vn 0 5.935966E-07 1
vn 0 1 5.729566E-08
vn 0 -1 -5.729566E-08
vn 0 0.740218 -0.6723669
vn 0 -0.7402179 0.6723671
vn 0 0.6723673 0.7402177
vn 0 -0.6723671 -0.7402179
vn 0 -0.05669275 -0.9983916
vn 0 0.05669274 0.9983917
vn 0 0.9983917 -0.05669283
vn 0 -0.9983917 0.05669225
vn 0 0.09150169 -0.995805
vn 0 -0.09150171 0.9958049
vn 0 0.9958049 0.09150242
vn 0 -0.995805 -0.09150088
vn 0 -0.6626202 -0.7489557
vn 0 0.6626204 0.7489555
vn 0 0.7489557 -0.6626201
vn 0 -0.7489557 0.6626201
vn 0 0.5877845 -0.8090175
vn 0 -0.5877855 0.8090168
vn 0 0.8090173 0.5877849
vn 0 -0.8090169 -0.5877854

usemtl glockstock.png
f 12/17/7 11/16/7 10/15/7 9/14/7
f 9/14/8 10/15/8 14/19/8 13/18/8
f 13/23/9 14/22/9 16/21/9 15/20/9
f 15/20/10 16/21/10 11/16/10 12/17/10
f 14/25/11 10/15/11 11/16/11 16/24/11
f 9/16/12 13/24/12 15/27/12 12/26/12
f 20/31/13 19/30/13 18/29/13 17/28/13
f 17/28/8 18/29/8 22/33/8 21/32/8
f 21/37/14 22/36/14 24/35/14 23/34/14
f 23/34/10 24/35/10 19/30/10 20/31/10
f 22/39/15 18/29/15 19/30/15 24/38/15
f 17/30/16 21/38/16 23/41/16 20/40/16
f 28/45/13 27/44/13 26/43/13 25/42/13
f 25/42/8 26/43/8 30/47/8 29/46/8
f 29/51/14 30/50/14 32/49/14 31/48/14
f 31/48/10 32/49/10 27/44/10 28/45/10
f 30/53/15 26/43/15 27/44/15 32/52/15
f 25/44/16 29/52/16 31/55/16 28/54/16
f 36/35/17 35/58/17 34/57/17 33/56/17
f 33/56/8 34/57/8 37/59/8 21/40/8
f 21/62/18 37/61/18 38/60/18 23/36/18
f 23/36/10 38/60/10 35/58/10 36/35/10
f 37/64/19 34/57/19 35/58/19 38/63/19
f 33/58/20 21/63/20 23/65/20 36/60/20
f 42/69/13 41/68/13 40/67/13 39/66/13
f 39/66/8 40/67/8 44/71/8 43/70/8
f 43/75/14 44/74/14 46/73/14 45/72/14
f 45/72/10 46/73/10 41/68/10 42/69/10
f 44/77/15 40/67/15 41/68/15 46/76/15
f 39/68/16 43/76/16 45/79/16 42/78/16
f 50/83/21 49/82/21 48/81/21 47/80/21
f 47/80/8 48/81/8 52/85/8 51/84/8
f 51/88/22 52/19/22 54/87/22 53/86/22
f 53/86/10 54/87/10 49/82/10 50/83/10
f 52/90/23 48/81/23 49/82/23 54/89/23
f 47/82/24 51/89/24 53/92/24 50/91/24
f 58/96/25 57/95/25 56/94/25 55/93/25
f 55/93/8 56/94/8 60/98/8 59/97/8
f 59/102/26 60/101/26 62/100/26 61/99/26
f 61/99/10 62/100/10 57/95/10 58/96/10
f 60/104/27 56/94/27 57/95/27 62/103/27
f 55/95/28 59/103/28 61/106/28 58/105/28
f 66/109/29 65/108/29 64/88/29 63/107/29
f 63/107/8 64/88/8 68/83/8 67/110/8
f 67/114/30 68/113/30 70/112/30 69/111/30
f 69/111/10 70/112/10 65/108/10 66/109/10
f 68/116/31 64/88/31 65/108/31 70/115/31
f 63/108/32 67/115/32 69/118/32 66/117/32
f 74/122/33 73/121/33 72/120/33 71/119/33
f 71/119/8 72/120/8 76/124/8 75/123/8
f 75/110/34 76/83/34 78/126/34 77/125/34
f 77/125/10 78/126/10 73/121/10 74/122/10
f 76/128/35 72/120/35 73/121/35 78/127/35
f 71/121/36 75/127/36 77/129/36 74/84/36
f 82/133/13 81/132/13 80/131/13 79/130/13
f 79/130/8 80/131/8 84/135/8 83/134/8
f 83/139/14 84/138/14 86/137/14 85/136/14
f 85/136/10 86/137/10 81/132/10 82/133/10
f 84/141/15 80/131/15 81/132/15 86/140/15
f 79/132/16 83/140/16 85/143/16 82/142/16
f 90/147/7 89/146/7 88/145/7 87/144/7
f 87/144/8 88/145/8 92/149/8 91/148/8
f 91/153/9 92/152/9 94/151/9 93/150/9
f 93/150/10 94/151/10 89/146/10 90/147/10
f 92/155/11 88/145/11 89/146/11 94/154/11
f 87/146/12 91/154/12 93/157/12 90/156/12
f 98/161/7 97/160/7 96/159/7 95/158/7
f 95/158/8 96/159/8 100/101/8 99/162/8
f 99/166/9 100/165/9 102/164/9 101/163/9
f 101/163/10 102/164/10 97/160/10 98/161/10
f 100/168/11 96/159/11 97/160/11 102/167/11
f 95/160/12 99/167/12 101/170/12 98/169/12

