# ProBuilder 6.0.5
# https://unity3d.com/unity/features/worldbuilding/probuilder
# 31.05.2025 18:17:33

mtllib ./hera_grip.mtl
o hera grip

g _ca_grip_1
v 0.03125 1.284375 -0.2328125
v 0.03125 1.346875 -0.2328125
v -0.03125 1.346875 -0.2328125
v -0.03125 1.284375 -0.2328125
v 0.03125 1.284375 -0.1703125
v 0.03125 1.346875 -0.1703125
v -0.03125 1.284375 -0.1703125
v -0.03125 1.346875 -0.1703125

vt 0.375 0.9375
vt 0.375 0.96875
vt 0.40625 0.96875
vt 0.40625 0.9375
vt 0.34375 0.9375
vt 0.34375 0.96875
vt 0.4375 0.9375
vt 0.4375 0.96875
vt 0.46875 0.96875
vt 0.46875 0.9375
vt 0.40625 1
vt 0.375 1
vt 0.4375 1

vn 0 0 -1
vn 1 0 0
vn 0 0 1
vn -1 0 0
vn 0 1 0
vn 0 -1 0

usemtl heragrip.png
f 4/4/1 3/3/1 2/2/1 1/1/1
f 1/1/2 2/2/2 6/6/2 5/5/2
f 5/10/3 6/9/3 8/8/3 7/7/3
f 7/7/4 8/8/4 3/3/4 4/4/4
f 6/12/5 2/2/5 3/3/5 8/11/5
f 1/3/6 5/11/6 7/13/6 4/8/6

g grip_16
v 0.0844375 1.259313 -0.4281875
v 0.0844375 1.321938 -0.4281875
v -0.0844375 1.321938 -0.4281875
v -0.0844375 1.259313 -0.4281875
v 0.0844375 1.259313 -0.0405625
v 0.0844375 1.321938 -0.0405625
v -0.0844375 1.259313 -0.0405625
v -0.0844375 1.321938 -0.0405625
v 0.08443751 1.065562 -0.2969375
v 0.08443751 1.259437 -0.2969375
v -0.0844375 1.259437 -0.2969375
v -0.0844375 1.065562 -0.2969375
v 0.08443751 1.065562 -0.06556252
v 0.08443751 1.259437 -0.06556252
v -0.0844375 1.065562 -0.06556252
v -0.0844375 1.259437 -0.06556252
v 0.0688125 1.065562 0.3718125
v 0.0688125 1.259437 0.3718125
v -0.0688125 1.259437 0.3718125
v -0.0688125 1.065562 0.3718125
v 0.0688125 1.065562 0.4969375
v 0.0688125 1.259437 0.4969375
v -0.0688125 1.065562 0.4969375
v -0.0688125 1.259437 0.4969375
v 0.0689375 0.8637042 0.1834439
v 0.0689375 1.147307 0.3783585
v -0.0689375 1.147307 0.3783585
v -0.0689375 0.8637042 0.1834439
v 0.0689375 0.7820709 0.3022211
v 0.0689375 1.065673 0.4971357
v -0.0689375 0.7820709 0.3022211
v -0.0689375 1.065673 0.4971357
v 0.0688125 0.7843125 0.04993752
v 0.0688125 0.9094375 0.04993752
v -0.0688125 0.9094375 0.04993752
v -0.0688125 0.7843125 0.04993752
v 0.0688125 0.7843125 0.3000625
v 0.0688125 0.9094375 0.3000625
v -0.0688125 0.7843125 0.3000625
v -0.0688125 0.9094375 0.3000625
v 0.0375625 0.7218125 0.1280625
v 0.0375625 0.7844375 0.1280625
v -0.0375625 0.7844375 0.1280625
v -0.0375625 0.7218125 0.1280625
v 0.0375625 0.7218125 0.2531875
v 0.0375625 0.7844375 0.2531875
v -0.0375625 0.7218125 0.2531875
v -0.0375625 0.7844375 0.2531875
v 0.0374375 0.7659727 0.192536
v 0.0374375 0.8669987 0.2659357
v -0.0374375 0.8669987 0.2659357
v -0.0374375 0.7659727 0.192536
v 0.0374375 0.7219623 0.2531112
v 0.0374375 0.8229883 0.3265108
v -0.0374375 0.7219623 0.2531112
v -0.0374375 0.8229883 0.3265108
v 0.08456249 1.065655 -0.3127635
v 0.08456249 1.186501 -0.1608396
v -0.0845625 1.186501 -0.1608396
v -0.0845625 1.065655 -0.3127635
v 0.08456249 0.8354704 -0.1296664
v 0.08456249 0.9563161 0.02225745
v -0.0845625 0.8354704 -0.1296664
v -0.0845625 0.9563161 0.02225745
v 0.0844375 0.8374698 -0.1344581
v 0.0844375 1.01318 -0.05252296
v -0.0844375 1.01318 -0.05252296
v -0.0844375 0.8374698 -0.1344581
v 0.0844375 0.7132728 0.1318831
v 0.0844375 0.8889832 0.2138182
v -0.0844375 0.7132728 0.1318831
v -0.0844375 0.8889832 0.2138182
v 0.08425 1.289332 -0.1581328
v 0.08425 1.367254 -0.05282757
v -0.08425 1.367254 -0.05282757
v -0.08425 1.289332 -0.1581328
v 0.08425 1.199099 -0.09136394
v 0.08425 1.277021 0.01394132
v -0.08425 1.199099 -0.09136394
v -0.08425 1.277021 0.01394132
v 0.08425 1.148816 -0.2757992
v 0.08425 1.293656 -0.4715384
v -0.08425 1.293656 -0.4715384
v -0.08425 1.148816 -0.2757992
v 0.08425 1.223977 -0.2201833
v 0.08425 1.368816 -0.4159224
v -0.08425 1.223977 -0.2201833
v -0.08425 1.368816 -0.4159224
v 0.084375 1.259375 -0.05312499
v 0.084375 1.36875 -0.05312499
v -0.084375 1.36875 -0.05312499
v -0.084375 1.259375 -0.05312499
v 0.084375 1.259375 0.434375
v 0.084375 1.36875 0.434375
v -0.084375 1.259375 0.434375
v -0.084375 1.36875 0.434375
v 0.084375 1.321875 0.434375
v -0.084375 1.321875 0.434375
v 0.084375 1.259375 0.496875
v 0.084375 1.321875 0.496875
v -0.084375 1.259375 0.496875
v -0.084375 1.321875 0.496875
v 0.084375 1.259375 -0.69375
v 0.084375 1.36875 -0.69375
v -0.084375 1.36875 -0.69375
v -0.084375 1.259375 -0.69375
v 0.084375 1.259375 -0.415625
v -0.084375 1.259375 -0.415625
v 0.084375 1.15 -0.69375
v -0.084375 1.15 -0.69375
v 0.084375 1.15 -0.63125
v 0.084375 1.259375 -0.63125
v -0.084375 1.15 -0.63125
v -0.084375 1.259375 -0.63125
v 0.0844375 1.215792 -0.6890309
v -0.0844375 1.215792 -0.6890309
v 0.0844375 1.273622 -0.4901918
v 0.0844375 1.339502 -0.547967
v -0.0844375 1.273622 -0.4901918
v -0.0844375 1.339502 -0.547967

vt 0.1875 0.53125
vt 0.1875 0.5625
vt 0.25 0.5625
vt 0.25 0.53125
vt 0 0.53125
vt 0 0.5625
vt 0.4375 0.53125
vt 0.4375 0.5625
vt 0.5 0.5625
vt 0.5 0.53125
vt 0.25 0.75
vt 0.1875 0.75
vt 0.3125 0.5625
vt 0.3125 0.75
vt 0.71875 0.6875
vt 0.71875 0.78125
vt 0.78125 0.78125
vt 0.78125 0.6875
vt 0.625 0.6875
vt 0.625 0.78125
vt 0.875 0.6875
vt 0.875 0.78125
vt 0.9375 0.78125
vt 0.9375 0.6875
vt 0.78125 0.875
vt 0.71875 0.875
vt 0.84375 0.78125
vt 0.84375 0.875
vt 0.6875 0.53125
vt 0.6875 0.625
vt 0.75 0.625
vt 0.75 0.53125
vt 0.625 0.53125
vt 0.625 0.625
vt 0.8125 0.53125
vt 0.8125 0.625
vt 0.875 0.625
vt 0.875 0.53125
vt 0.75 0.6875
vt 0.6875 0.6875
vt 0.8125 0.6875
vt 0.6875 0.21875
vt 0.6875 0.375
vt 0.75 0.375
vt 0.75 0.21875
vt 0.625 0.21875
vt 0.625 0.375
vt 0.8125 0.21875
vt 0.8125 0.375
vt 0.875 0.375
vt 0.875 0.21875
vt 0.75 0.4375
vt 0.6875 0.4375
vt 0.8125 0.4375
vt 0.125 0.34375
vt 0.125 0.40625
vt 0.1875 0.40625
vt 0.1875 0.34375
vt 0 0.34375
vt 0 0.40625
vt 0.3125 0.34375
vt 0.3125 0.40625
vt 0.375 0.40625
vt 0.375 0.34375
vt 0.125 0.53125
vt 0.25 0.40625
vt 0.0625 0.78125
vt 0.0625 0.8125
vt 0.09375 0.8125
vt 0.09375 0.78125
vt 0 0.78125
vt 0 0.8125
vt 0.15625 0.78125
vt 0.15625 0.8125
vt 0.1875 0.8125
vt 0.1875 0.78125
vt 0.09375 0.875
vt 0.0625 0.875
vt 0.125 0.8125
vt 0.125 0.875
vt 0.03125 0.5625
vt 0.03125 0.625
vt 0.0625 0.625
vt 0.0625 0.5625
vt 0 0.625
vt 0.09375 0.5625
vt 0.09375 0.625
vt 0.125 0.625
vt 0.125 0.5625
vt 0.0625 0.65625
vt 0.03125 0.65625
vt 0.09375 0.65625
vt 0.5 0.4375
vt 0.5625 0.53125
vt 0.5625 0.4375
vt 0.375 0.4375
vt 0.375 0.53125
vt 0.5625 0.65625
vt 0.5 0.65625
vt 0.625 0.65625
vt 0.46875 0.78125
vt 0.46875 0.875
vt 0.53125 0.875
vt 0.53125 0.78125
vt 0.34375 0.78125
vt 0.34375 0.875
vt 0.65625 0.78125
vt 0.65625 0.875
vt 0.53125 1
vt 0.46875 1
vt 0.59375 0.875
vt 0.59375 1
vt 0.03125 0.71875
vt 0.09375 0.71875
vt 0 0.65625
vt 0 0.71875
vt 0.125 0.65625
vt 0.125 0.71875
vt 0.1875 0.71875
vt 0.1875 0.65625
vt 0.09375 0.75
vt 0.03125 0.75
vt 0.15625 0.71875
vt 0.15625 0.75
vt 0.03125 0.875
vt 0.03125 0.96875
vt 0.09375 0.96875
vt 0 0.875
vt 0 0.96875
vt 0.125 0.96875
vt 0.1875 0.96875
vt 0.1875 0.875
vt 0.09375 1
vt 0.03125 1
vt 0.15625 0.96875
vt 0.15625 1
vt 0.21875 0.75
vt 0.21875 0.78125
vt 0.28125 0.78125
vt 0.28125 0.75
vt 0 0.75
vt 0.5 0.75
vt 0.5 0.78125
vt 0.5625 0.78125
vt 0.5625 0.75
vt 0.28125 1
vt 0.21875 1
vt 0.34375 1
vt 0.34375 0.625
vt 0.34375 0.65625
vt 0.40625 0.65625
vt 0.40625 0.625
vt 0.3125 0.625
vt 0.3125 0.65625
vt 0.4375 0.625
vt 0.4375 0.65625
vt 0.5 0.625
vt 0.40625 0.6875
vt 0.34375 0.6875
vt 0.46875 0.65625
vt 0.46875 0.6875
vt 0.375 0.28125
vt 0.375 0.3125
vt 0.4375 0.3125
vt 0.4375 0.28125
vt 0.25 0.28125
vt 0.25 0.3125
vt 0.5625 0.28125
vt 0.5625 0.3125
vt 0.625 0.3125
vt 0.625 0.28125
vt 0.4375 0.4375
vt 0.5 0.3125
vt 0.34375 0.71875
vt 0.40625 0.71875
vt 0.3125 0.6875
vt 0.3125 0.71875
vt 0.4375 0.6875
vt 0.4375 0.71875
vt 0.5 0.71875
vt 0.5 0.6875
vt 0.40625 0.75
vt 0.34375 0.75
vt 0.46875 0.71875
vt 0.46875 0.75
vt 0.6875 0.875
vt 0.6875 0.90625
vt 0.75 0.90625
vt 0.75 0.875
vt 0.59375 0.90625
vt 0.84375 0.90625
vt 0.90625 0.90625
vt 0.90625 0.875
vt 0.75 1
vt 0.6875 1
vt 0.8125 0.90625
vt 0.8125 1

vn 0 0 -1
vn 1 0 0
vn 0 0 1
vn -1 0 0
vn 0 1 0
vn 0 -1 0
vn 0 0.5664064 -0.8241261
vn 0 -0.5664061 0.8241263
vn 0 0.8241264 0.566406
vn 0 -0.8241262 -0.5664063
vn 0 0.5877852 -0.8090171
vn 0 -0.5877852 0.8090171
vn 0 0.8090171 0.5877852
vn 0 -0.8090171 -0.5877852
vn 0 0.7826081 -0.6225147
vn 0 -0.7826081 0.6225147
vn 0 0.6225146 0.7826082
vn 0 -0.6225146 -0.7826082
vn 0 0.4226183 -0.9063078
vn 0 -0.4226182 0.9063078
vn 0 0.9063079 0.4226182
vn 0 -0.9063078 -0.4226183
vn 0 0.803857 -0.5948226
vn 0 -0.8038566 0.5948232
vn 0 0.5948233 0.8038565
vn 0 -0.5948228 -0.8038568
vn 0 -0.8038568 -0.5948229
vn 0 0.803857 0.5948227
vn 0 0.5948234 -0.8038564
vn 0 -0.5948225 0.803857
vn 0 -0.6593461 -0.7518395
vn 0 0.6593461 0.7518395
vn 0 0.7518397 -0.659346
vn 0 -0.7518397 0.659346

usemtl heragrip.png
f 12/17/7 11/16/7 10/15/7 9/14/7
f 9/14/8 10/15/8 14/19/8 13/18/8
f 13/23/9 14/22/9 16/21/9 15/20/9
f 15/20/10 16/21/10 11/16/10 12/17/10
f 14/25/11 10/15/11 11/16/11 16/24/11
f 9/16/12 13/24/12 15/27/12 12/26/12
f 20/31/7 19/30/7 18/29/7 17/28/7
f 17/28/8 18/29/8 22/33/8 21/32/8
f 21/37/9 22/36/9 24/35/9 23/34/9
f 23/34/10 24/35/10 19/30/10 20/31/10
f 22/39/11 18/29/11 19/30/11 24/38/11
f 17/30/12 21/38/12 23/41/12 20/40/12
f 28/45/7 27/44/7 26/43/7 25/42/7
f 25/42/8 26/43/8 30/47/8 29/46/8
f 29/51/9 30/50/9 32/49/9 31/48/9
f 31/48/10 32/49/10 27/44/10 28/45/10
f 30/53/11 26/43/11 27/44/11 32/52/11
f 25/44/12 29/52/12 31/54/12 28/49/12
f 36/58/13 35/57/13 34/56/13 33/55/13
f 33/55/8 34/56/8 38/60/8 37/59/8
f 37/64/14 38/63/14 40/62/14 39/61/14
f 39/61/10 40/62/10 35/57/10 36/58/10
f 38/66/15 34/56/15 35/57/15 40/65/15
f 33/57/16 37/65/16 39/67/16 36/62/16
f 44/71/7 43/70/7 42/69/7 41/68/7
f 41/68/8 42/69/8 46/73/8 45/72/8
f 45/77/9 46/76/9 48/75/9 47/74/9
f 47/74/10 48/75/10 43/70/10 44/71/10
f 46/78/11 42/69/11 43/70/11 48/14/11
f 41/70/12 45/14/12 47/17/12 44/79/12
f 52/83/7 51/82/7 50/81/7 49/80/7
f 49/80/8 50/81/8 54/85/8 53/84/8
f 53/89/9 54/88/9 56/87/9 55/86/9
f 55/86/10 56/87/10 51/82/10 52/83/10
f 54/91/11 50/81/11 51/82/11 56/90/11
f 49/82/12 53/90/12 55/93/12 52/92/12
f 60/97/17 59/96/17 58/95/17 57/94/17
f 57/94/8 58/95/8 62/98/8 61/19/8
f 61/102/18 62/101/18 64/100/18 63/99/18
f 63/99/10 64/100/10 59/96/10 60/97/10
f 62/104/19 58/95/19 59/96/19 64/103/19
f 57/96/20 61/103/20 63/105/20 60/100/20
f 68/108/21 67/107/21 66/23/21 65/106/21
f 65/106/8 66/23/8 70/110/8 69/109/8
f 69/65/22 70/45/22 72/42/22 71/66/22
f 71/66/10 72/42/10 67/107/10 68/108/10
f 70/112/23 66/23/23 67/107/23 72/111/23
f 65/107/24 69/111/24 71/113/24 68/46/24
f 76/117/25 75/116/25 74/115/25 73/114/25
f 73/114/8 74/115/8 78/119/8 77/118/8
f 77/29/26 78/39/26 80/121/26 79/120/26
f 79/120/10 80/121/10 75/116/10 76/117/10
f 78/123/27 74/115/27 75/116/27 80/122/27
f 73/116/28 77/122/28 79/125/28 76/124/28
f 84/105/29 83/127/29 82/126/29 81/104/29
f 81/104/8 82/126/8 86/129/8 85/128/8
f 85/133/30 86/132/30 88/131/30 87/130/30
f 87/130/10 88/131/10 83/127/10 84/105/10
f 86/135/31 82/126/31 83/127/31 88/134/31
f 81/127/32 85/134/32 87/137/32 84/136/32
f 92/90/33 91/140/33 90/139/33 89/138/33
f 89/138/8 90/139/8 94/142/8 93/141/8
f 93/145/34 94/144/34 96/143/34 95/93/34
f 95/93/10 96/143/10 91/140/10 92/90/10
f 94/147/35 90/139/35 91/140/35 96/146/35
f 89/140/36 93/146/36 95/149/36 92/148/36
f 100/153/7 99/152/7 98/151/7 97/150/7
f 97/150/8 98/151/8 102/84/8 101/154/8
f 101/158/9 102/157/9 104/156/9 103/155/9
f 103/155/10 104/156/10 99/152/10 100/153/10
f 102/160/11 98/151/11 99/152/11 104/159/11
f 97/152/12 101/159/12 103/161/12 100/118/12
f 103/165/7 106/164/7 105/163/7 101/162/7
f 101/162/8 105/163/8 108/167/8 107/166/8
f 107/170/9 108/112/9 110/169/9 109/168/9
f 109/168/10 110/169/10 106/164/10 103/165/10
f 108/172/11 105/163/11 106/164/11 110/171/11
f 101/164/12 107/171/12 109/174/12 103/173/12
f 114/178/7 113/177/7 112/176/7 111/175/7
f 111/175/8 112/176/8 94/180/8 115/179/8
f 115/184/9 94/183/9 96/182/9 116/181/9
f 116/181/10 96/182/10 113/177/10 114/178/10
f 94/109/11 112/176/11 113/177/11 96/185/11
f 111/177/12 115/185/12 116/106/12 114/186/12
f 118/171/7 114/188/7 111/187/7 117/172/7
f 117/172/8 111/187/8 120/190/8 119/189/8
f 119/194/9 120/193/9 122/192/9 121/191/9
f 121/191/10 122/192/10 114/188/10 118/171/10
f 120/196/11 111/187/11 114/188/11 122/195/11
f 117/188/12 119/195/12 121/198/12 118/197/12
f 121/202/37 124/201/37 123/200/37 119/199/37
f 119/199/8 123/200/8 126/203/8 125/124/8
f 125/206/38 126/205/38 128/204/38 127/41/38
f 127/41/10 128/204/10 124/201/10 121/202/10
f 126/208/39 123/200/39 124/201/39 128/207/39
f 119/201/40 125/207/40 127/210/40 121/209/40

