# ProBuilder 6.0.5
# https://unity3d.com/unity/features/worldbuilding/probuilder
# 31.05.2025 18:15:30

mtllib ./aimpoint.mtl
o aimpoint

g _ca_scope_1
v 0.03125 1.840625 -0.04218747
v 0.03125 1.903125 -0.04218747
v -0.03125 1.903125 -0.04218747
v -0.03125 1.840625 -0.04218747
v 0.03125 1.840625 0.02031253
v 0.03125 1.903125 0.02031253
v -0.03125 1.840625 0.02031253
v -0.03125 1.903125 0.02031253

vt 0.52 0.18
vt 0.52 0.2
vt 0.54 0.2
vt 0.54 0.18
vt 0.5 0.18
vt 0.5 0.2
vt 0.56 0.18
vt 0.56 0.2
vt 0.58 0.2
vt 0.58 0.18
vt 0.54 0.22
vt 0.52 0.22
vt 0.56 0.22

vn 0 0 -1
vn 1 0 0
vn 0 0 1
vn -1 0 0
vn 0 1 0
vn 0 -1 0

usemtl aimpoint.png
f 4/4/1 3/3/1 2/2/1 1/1/1
f 1/1/2 2/2/2 6/6/2 5/5/2
f 5/10/3 6/9/3 8/8/3 7/7/3
f 7/7/4 8/8/4 3/3/4 4/4/4
f 6/12/5 2/2/5 3/3/5 8/11/5
f 1/3/6 5/11/6 7/13/6 4/8/6

g gun_29
v -0.01625499 1.931202 -0.221875
v -0.0824949 2.037208 -0.221875
v -0.1036961 2.02396 -0.221875
v -0.03745618 1.917954 -0.221875
v -0.01625499 1.931202 0.234375
v -0.0824949 2.037208 0.234375
v -0.03745618 1.917954 0.234375
v -0.1036961 2.02396 0.234375
v 0.1242002 1.989488 -0.221875
v 0.1109522 2.010689 -0.221875
v -0.0242082 1.896752 -0.221875
v 0.1242002 1.989488 0.234375
v 0.1109522 2.010689 0.234375
v -0.0242082 1.896752 0.234375
v 0.04471232 2.116695 -0.221875
v 0.03146433 2.137897 -0.221875
v -0.1169441 2.045161 -0.221875
v 0.04471232 2.116695 0.234375
v 0.03146433 2.137897 0.234375
v -0.1169441 2.045161 0.234375
v 0.02351112 2.103447 -0.221875
v 0.08975102 1.997442 -0.221875
v 0.08975102 1.997442 0.234375
v 0.02351112 2.103447 0.234375
v 0.1228525 1.93264 -0.2481118
v 0.09127979 2.074808 -0.2121773
v 0.07866884 2.066928 -0.1920809
v 0.1102416 1.92476 -0.2280154
v 0.2484625 1.939893 -0.1664445
v 0.2168897 2.082062 -0.1305101
v 0.2358515 1.932013 -0.1463481
v 0.2042788 2.074182 -0.1104137
v 0.1440749 1.987168 -0.190625
v 0.0380911 2.156777 -0.190625
v 0.01688989 2.143529 -0.190625
v 0.1228737 1.97392 -0.190625
v 0.1440749 1.987168 0.171875
v 0.0380911 2.156777 0.171875
v 0.1228737 1.97392 0.171875
v 0.01688989 2.143529 0.171875
v 0.1656875 1.99255 -0.1726773
v 0.1656875 2.13444 -0.09321529
v 0.09056249 2.13444 -0.09321529
v 0.09056249 1.99255 -0.1726773
v 0.1656875 1.913088 -0.03078765
v 0.1656875 2.054978 0.04867437
v 0.09056249 1.913088 -0.03078765
v 0.09056249 2.054978 0.04867437
v 0.153125 1.991849 0.03903973
v 0.153125 2.068192 0.08179408
v 0.090625 2.068192 0.08179408
v 0.090625 1.991849 0.03903973
v 0.153125 1.949094 0.1153831
v 0.153125 2.025438 0.1581375
v 0.090625 1.949094 0.1153831
v 0.090625 2.025438 0.1581375
v 0.1125 2.112543 -0.1054069
v 0.1125 2.134355 -0.09319133
v 0.06875 2.134355 -0.09319133
v 0.06874999 2.112543 -0.1054069
v 0.1125 2.036196 0.03092065
v 0.1125 2.058008 0.04313618
v 0.06874999 2.036196 0.03092065
v 0.06874999 2.058008 0.04313618
v 0.1140625 1.962036 -0.1180612
v 0.1140625 1.983848 -0.1058457
v 0.0703125 1.983848 -0.1058457
v 0.0703125 1.962036 -0.1180612
v 0.1140625 1.913173 -0.03081167
v 0.1140625 1.934986 -0.01859611
v 0.0703125 1.913173 -0.03081167
v 0.0703125 1.934986 -0.01859611
v 0.1140625 1.947201 -0.04040852
v 0.1140625 1.969014 -0.028193
v 0.0703125 1.969014 -0.028193
v 0.0703125 1.947201 -0.04040852
v 0.1140625 1.956798 -0.006380618
v 0.0703125 1.956798 -0.006380618
v 0.1125 2.063465 -0.1328918
v 0.06874999 2.063465 -0.1328918
v 0.1125 2.048195 -0.1056263
v 0.1125 2.097273 -0.07814133
v 0.06874999 2.048195 -0.1056263
v 0.06874999 2.097273 -0.07814133
v 0.09368748 2.107113 -0.1083757
v 0.09368749 2.13427 -0.0931673
v 0.0500625 2.13427 -0.0931673
v 0.05006249 2.107113 -0.1083757
v 0.09368749 2.07969 -0.05940682
v 0.09368749 2.106846 -0.04419848
v 0.0500625 2.07969 -0.05940682
v 0.05006249 2.106846 -0.04419848
v -0.009633784 1.89112 -0.190625
v -0.1156176 2.06073 -0.190625
v -0.1368188 2.047482 -0.190625
v -0.03083497 1.877872 -0.190625
v -0.009633784 1.89112 0.171875
v -0.1156176 2.06073 0.171875
v -0.03083497 1.877872 0.171875
v -0.1368188 2.047482 0.171875
v 0.08131251 1.8265 -0.1938125
v 0.08131251 1.90475 -0.1938125
v -0.08131251 1.90475 -0.1938125
v -0.0813125 1.8265 -0.1938125
v 0.08131251 1.8265 0.1813125
v 0.08131251 1.90475 0.1813125
v -0.0813125 1.8265 0.1813125
v -0.08131251 1.90475 0.1813125
v -0.03125 1.892187 -0.16875
v -0.03125 1.957812 -0.16875
v -0.08124999 1.957812 -0.16875
v -0.08124999 1.892187 -0.16875
v -0.03125 1.892187 -0.05625001
v -0.03125 1.957812 -0.05625001
v -0.08124999 1.892187 -0.05625001
v -0.08124999 1.957812 -0.05625001
v -0.03125 1.892187 0.05000001
v -0.03125 1.957812 0.05000001
v -0.08124999 1.957812 0.05000001
v -0.08124999 1.892187 0.05000001
v -0.03125 1.892187 0.1625
v -0.03125 1.957812 0.1625
v -0.08124999 1.892187 0.1625
v -0.08124999 1.957812 0.1625
v 0.08125 1.892187 0.05000001
v 0.08125 1.957812 0.05000001
v 0.03125 1.957812 0.05000001
v 0.03125 1.892187 0.05000001
v 0.08125 1.892187 0.1625
v 0.08125 1.957812 0.1625
v 0.03125 1.892187 0.1625
v 0.03125 1.957812 0.1625
v 0.04999999 1.860937 -0.175
v 0.04999999 1.926562 -0.175
v -4.701542E-09 1.926562 -0.175
v 8.137062E-09 1.860937 -0.175
v 0.04999999 1.860937 0.16875
v 0.04999999 1.926562 0.16875
v 8.137062E-09 1.860937 0.16875
v -4.701542E-09 1.926562 0.16875
v 0.08125 1.892187 -0.16875
v 0.08125 1.957812 -0.16875
v 0.03125 1.957812 -0.16875
v 0.03125 1.892187 -0.16875
v 0.08125 1.892187 -0.05625001
v 0.08125 1.957812 -0.05625001
v 0.03125 1.892187 -0.05625001
v 0.03125 1.957812 -0.05625001
v 0.135688 1.826563 0.07706574
v 0.135688 1.889063 0.07706574
v 0.0875 1.889063 -0.078125
v 0.08749999 1.826563 -0.078125
v 0.07599923 1.826563 0.09559959
v 0.07599923 1.889063 0.09559959
v 0.02781124 1.826563 -0.05959114
v 0.02781124 1.889063 -0.05959114
v 0.1231244 1.817187 0.1883171
v 0.1231244 1.910937 0.1883171
v 0.1109375 1.910937 0.08906251
v 0.1109375 1.817187 0.08906251
v 0.06109028 1.817187 0.1959339
v 0.06109028 1.910937 0.1959339
v 0.04890337 1.817187 0.09667933
v 0.04890335 1.910937 0.09667933
v 0.03013787 2.122328 -0.190625
v -0.1023697 2.039528 -0.190625
v 0.03013787 2.122328 0.171875
v -0.1023697 2.039528 0.171875
v 0.0359375 2.1125 0.103125
v 0.03593751 2.175 0.103125
v -0.03281251 2.175 0.103125
v -0.03281251 2.1125 0.103125
v 0.0359375 2.1125 0.165625
v 0.03593751 2.175 0.165625
v -0.03281251 2.1125 0.165625
v -0.03281251 2.175 0.165625
v 0.007940813 2.109375 0.0456019
v 0.007940814 2.18125 0.0456019
v -0.03351104 2.18125 0.07356155
v -0.03351105 2.109375 0.07356155
v 0.03590048 2.109375 0.08705378
v 0.03590048 2.18125 0.08705378
v -0.005551411 2.109375 0.1150134
v -0.005551411 2.18125 0.1150134
v 0.036 2.112437 -0.00631249
v 0.03600001 2.175062 -0.00631249
v -0.03287502 2.175062 -0.00631249
v -0.03287501 2.112437 -0.00631249
v 0.036 2.112437 0.0563125
v 0.03600001 2.175062 0.0563125
v -0.03287501 2.112437 0.0563125
v -0.03287502 2.175062 0.0563125
v 0.0359375 2.105678 -0.06283808
v 0.03593751 2.139382 -0.07927701
v -0.03281251 2.139382 -0.07927701
v -0.03281251 2.105678 -0.06283808
v 0.0359375 2.141295 0.01018894
v 0.03593751 2.175 -0.006249994
v -0.03281251 2.141295 0.01018894
v -0.03281251 2.175 -0.006249994
v 0.035875 2.112562 -0.04993749
v 0.035875 2.149937 -0.04993749
v -0.03275 2.149937 -0.04993749
v -0.03274999 2.112562 -0.04993749
v 0.035875 2.112562 -0.00631249
v 0.035875 2.149937 -0.00631249
v -0.03274999 2.112562 -0.00631249
v -0.03275 2.149937 -0.00631249
v 0.1096258 1.995121 -0.190625
v -0.02288176 1.912321 -0.190625
v 0.1096258 1.995121 0.171875
v -0.02288176 1.912321 0.171875

vt 0.4 0.52
vt 0.4 0.56
vt 0.42 0.56
vt 0.42 0.52
vt 0.26 0.52
vt 0.26 0.56
vt 0.56 0.52
vt 0.56 0.56
vt 0.58 0.56
vt 0.58 0.52
vt 0.42 0.7
vt 0.4 0.7
vt 0.44 0.56
vt 0.44 0.7
vt 0.14 0.68
vt 0.14 0.7
vt 0.2 0.7
vt 0.2 0.68
vt 0 0.68
vt 0 0.7
vt 0.34 0.68
vt 0.34 0.7
vt 0.4 0.68
vt 0.2 0.84
vt 0.14 0.84
vt 0.26 0.7
vt 0.26 0.84
vt 0.14 0.86
vt 0.2 0.86
vt 0 0.84
vt 0 0.86
vt 0.34 0.84
vt 0.34 0.86
vt 0.4 0.86
vt 0.4 0.84
vt 0.2 1
vt 0.14 1
vt 0.26 0.86
vt 0.26 1
vt 0.14 0.48
vt 0.14 0.52
vt 0.16 0.52
vt 0.16 0.48
vt 0 0.48
vt 0 0.52
vt 0.3 0.48
vt 0.3 0.52
vt 0.32 0.52
vt 0.32 0.48
vt 0.16 0.66
vt 0.14 0.66
vt 0.18 0.52
vt 0.18 0.66
vt 0.24 0.56
vt 0.24 0.62
vt 0.26 0.62
vt 0.18 0.56
vt 0.18 0.62
vt 0.32 0.56
vt 0.32 0.62
vt 0.34 0.62
vt 0.34 0.56
vt 0.26 0.68
vt 0.24 0.68
vt 0.28 0.62
vt 0.28 0.68
vt 0.62 0.8
vt 0.62 0.86
vt 0.64 0.86
vt 0.64 0.8
vt 0.5 0.8
vt 0.5 0.86
vt 0.76 0.8
vt 0.76 0.86
vt 0.78 0.86
vt 0.78 0.8
vt 0.64 0.98
vt 0.62 0.98
vt 0.66 0.86
vt 0.66 0.98
vt 0.06 0.36
vt 0.06 0.42
vt 0.08 0.42
vt 0.08 0.36
vt 0 0.36
vt 0 0.42
vt 0.14 0.36
vt 0.14 0.42
vt 0.16 0.42
vt 0.16 0.36
vt 0.08 0.48
vt 0.06 0.48
vt 0.1 0.42
vt 0.1 0.48
vt 0.04 0.92
vt 0.04 0.96
vt 0.06 0.96
vt 0.06 0.92
vt 0 0.92
vt 0 0.96
vt 0.1 0.92
vt 0.1 0.96
vt 0.12 0.96
vt 0.12 0.92
vt 0.06 1
vt 0.04 1
vt 0.08 0.96
vt 0.08 1
vt 0.42 0.44
vt 0.42 0.46
vt 0.44 0.46
vt 0.44 0.44
vt 0.36 0.44
vt 0.36 0.46
vt 0.5 0.44
vt 0.5 0.46
vt 0.52 0.46
vt 0.52 0.44
vt 0.44 0.52
vt 0.46 0.46
vt 0.46 0.52
vt 0.3 0.88
vt 0.3 0.9
vt 0.32 0.9
vt 0.32 0.88
vt 0.26 0.88
vt 0.26 0.9
vt 0.36 0.88
vt 0.36 0.9
vt 0.38 0.9
vt 0.38 0.88
vt 0.32 0.94
vt 0.3 0.94
vt 0.34 0.9
vt 0.34 0.94
vt 0.08 0.58
vt 0.08 0.6
vt 0.1 0.6
vt 0.1 0.58
vt 0.06 0.58
vt 0.06 0.6
vt 0.12 0.58
vt 0.12 0.6
vt 0.14 0.6
vt 0.14 0.58
vt 0.1 0.62
vt 0.08 0.62
vt 0.12 0.62
vt 0.02 0.56
vt 0.02 0.58
vt 0.04 0.58
vt 0.04 0.56
vt 0 0.56
vt 0 0.58
vt 0.06 0.56
vt 0.08 0.56
vt 0.04 0.6
vt 0.02 0.6
vt 0.08 0.54
vt 0.1 0.56
vt 0.1 0.54
vt 0.06 0.54
vt 0.12 0.54
vt 0.12 0.56
vt 0.14 0.56
vt 0.14 0.54
vt 0.58 0.38
vt 0.58 0.44
vt 0.6 0.44
vt 0.6 0.38
vt 0.46 0.38
vt 0.46 0.44
vt 0.72 0.38
vt 0.72 0.44
vt 0.74 0.44
vt 0.74 0.38
vt 0.6 0.56
vt 0.62 0.44
vt 0.62 0.56
vt 0.56 0.58
vt 0.6 0.58
vt 0.44 0.58
vt 0.72 0.56
vt 0.72 0.58
vt 0.76 0.58
vt 0.76 0.56
vt 0.6 0.7
vt 0.56 0.7
vt 0.64 0.58
vt 0.64 0.7
vt 0.3 0.96
vt 0.32 0.96
vt 0.26 0.94
vt 0.26 0.96
vt 0.36 0.94
vt 0.36 0.96
vt 0.38 0.96
vt 0.38 0.94
vt 0.32 1
vt 0.3 1
vt 0.34 0.96
vt 0.34 1
vt 0.04 0.72
vt 0.04 0.74
vt 0.06 0.74
vt 0.06 0.72
vt 0 0.72
vt 0 0.74
vt 0.1 0.72
vt 0.1 0.74
vt 0.12 0.74
vt 0.12 0.72
vt 0.06 0.78
vt 0.04 0.78
vt 0.08 0.74
vt 0.08 0.78
vt 0.04 0.86
vt 0.04 0.88
vt 0.06 0.88
vt 0.06 0.86
vt 0 0.88
vt 0.1 0.86
vt 0.1 0.88
vt 0.12 0.88
vt 0.12 0.86
vt 0.08 0.88
vt 0.08 0.92
vt 0.32 0.4
vt 0.32 0.42
vt 0.34 0.42
vt 0.34 0.4
vt 0.22 0.4
vt 0.22 0.42
vt 0.44 0.4
vt 0.44 0.42
vt 0.46 0.42
vt 0.46 0.4
vt 0.34 0.52
vt 0.36 0.42
vt 0.36 0.52
vt 0.04 0.8
vt 0.06 0.8
vt 0 0.78
vt 0 0.8
vt 0.1 0.78
vt 0.1 0.8
vt 0.12 0.8
vt 0.12 0.78
vt 0.06 0.84
vt 0.04 0.84
vt 0.08 0.8
vt 0.08 0.84
vt 0.28 0.8
vt 0.28 0.82
vt 0.32 0.82
vt 0.32 0.8
vt 0.26 0.8
vt 0.26 0.82
vt 0.34 0.8
vt 0.34 0.82
vt 0.38 0.82
vt 0.38 0.8
vt 0.32 0.84
vt 0.28 0.84
vt 0.36 0.82
vt 0.36 0.84
vt 0.02 0.62
vt 0.04 0.62
vt 0 0.6
vt 0 0.62
vt 0.06 0.62
vt 0.04 0.64
vt 0.02 0.64
vt 0.06 0.64
vt 0.38 0.7
vt 0.38 0.72
vt 0.44 0.72
vt 0.26 0.72
vt 0.56 0.72
vt 0.62 0.72
vt 0.62 0.7
vt 0.44 0.84
vt 0.38 0.84
vt 0.5 0.72
vt 0.5 0.84
vt 0.08 0.64
vt 0.1 0.64
vt 0.12 0.64
vt 0.14 0.64
vt 0.14 0.62
vt 0.1 0.66
vt 0.08 0.66
vt 0.12 0.66
vt 0.28 0.72
vt 0.28 0.74
vt 0.3 0.74
vt 0.3 0.72
vt 0.26 0.74
vt 0.32 0.72
vt 0.32 0.74
vt 0.34 0.74
vt 0.34 0.72
vt 0.3 0.76
vt 0.28 0.76
vt 0.32 0.76
vt 0.3 0.64
vt 0.3 0.66
vt 0.32 0.66
vt 0.32 0.64
vt 0.28 0.64
vt 0.28 0.66
vt 0.34 0.64
vt 0.34 0.66
vt 0.36 0.66
vt 0.36 0.64
vt 0.32 0.68
vt 0.3 0.68
vt 0.02 0.66
vt 0.04 0.66
vt 0 0.64
vt 0 0.66
vt 0.06 0.66
vt 0.04 0.68
vt 0.02 0.68
vt 0.06 0.68
vt 0.28 0.78
vt 0.3 0.78
vt 0.26 0.76
vt 0.26 0.78
vt 0.32 0.78
vt 0.34 0.78
vt 0.34 0.76
vt 0.3 0.8
vt 0.38 0.86
vt 0.44 0.88
vt 0.44 0.86
vt 0.56 0.86
vt 0.56 0.88
vt 0.62 0.88
vt 0.44 1
vt 0.38 1
vt 0.5 0.88
vt 0.5 1

vn 0 0 -1
vn 0.8480481 0.5299193 0
vn 0 0 1
vn -0.8480481 -0.5299193 0
vn -0.5299193 0.8480481 0
vn 0.5299193 -0.8480481 0
vn -0.8373997 -0.04835514 -0.544448
vn 0.5044382 0.3152079 -0.803857
vn 0.8373994 0.04835495 0.5444484
vn -0.5044383 -0.315208 0.8038568
vn -0.2104861 0.9477897 0.2395627
vn 0.2104854 -0.9477898 -0.2395631
vn 3.66644E-08 0.4886216 -0.8724958
vn 1 0 -1.263157E-09
vn -4.928809E-08 -0.4886214 0.8724959
vn -1 0 1.015595E-08
vn 6.327185E-08 0.8724959 0.4886214
vn -3.16862E-08 -0.8724959 -0.4886213
vn 0 1 0
vn -5.054761E-08 -1 0
vn 0.95502 -3.252566E-08 -0.2965415
vn 0.2965417 2.479943E-08 0.9550199
vn -0.95502 -1.802195E-08 0.2965415
vn -0.2965417 2.89041E-08 -0.95502
vn 0.9925461 1.793301E-08 -0.1218693
vn 0.1218691 -8.329091E-09 0.9925462
vn -0.9925462 -1.000663E-07 0.1218692
vn -0.1218691 -9.833978E-09 -0.9925462
vn 1.137189E-07 0.9999999 0
vn -0.5591931 2.654184E-08 -0.8290374
vn 0.8290374 7.673801E-09 -0.5591933
vn 0.5591928 -1.24162E-09 0.8290377
vn -0.8290376 4.921207E-08 0.5591929
vn -1.634318E-08 -0.4383717 -0.8987938
vn 2.898008E-08 0.4383717 0.8987938
vn 1.141833E-07 0.8987944 -0.4383705
vn 1.849754E-08 -0.8987944 0.4383705

usemtl aimpoint.png
f 12/17/7 11/16/7 10/15/7 9/14/7
f 9/14/8 10/15/8 14/19/8 13/18/8
f 13/23/9 14/22/9 16/21/9 15/20/9
f 15/20/10 16/21/10 11/16/10 12/17/10
f 14/25/11 10/15/11 11/16/11 16/24/11
f 9/16/12 13/24/12 15/27/12 12/26/12
f 19/31/7 12/30/7 18/29/7 17/28/7
f 17/28/8 18/29/8 21/33/8 20/32/8
f 20/36/9 21/25/9 15/35/9 22/34/9
f 22/34/10 15/35/10 12/30/10 19/31/10
f 21/38/11 18/29/11 12/30/11 15/37/11
f 17/30/12 20/37/12 22/40/12 19/39/12
f 11/37/7 25/42/7 24/41/7 23/38/7
f 23/38/8 24/41/8 27/44/8 26/43/8
f 26/48/9 27/47/9 28/46/9 16/45/9
f 16/45/10 28/46/10 25/42/10 11/37/10
f 27/50/11 24/41/11 25/42/11 28/49/11
f 23/42/12 26/49/12 16/52/12 11/51/12
f 30/56/7 29/55/7 23/54/7 18/53/7
f 18/53/8 23/54/8 26/58/8 21/57/8
f 21/62/9 26/61/9 32/60/9 31/59/9
f 31/59/10 32/60/10 29/55/10 30/56/10
f 26/64/11 23/54/11 29/55/11 32/63/11
f 18/55/12 21/63/12 31/66/12 30/65/12
f 36/19/13 35/69/13 34/68/13 33/67/13
f 33/67/14 34/68/14 38/71/14 37/70/14
f 37/75/15 38/74/15 40/73/15 39/72/15
f 39/72/16 40/73/16 35/69/16 36/19/16
f 38/77/17 34/68/17 35/69/17 40/76/17
f 33/69/18 37/76/18 39/79/18 36/78/18
f 44/83/7 43/82/7 42/81/7 41/80/7
f 41/80/8 42/81/8 46/85/8 45/84/8
f 45/89/9 46/88/9 48/87/9 47/86/9
f 47/86/10 48/87/10 43/82/10 44/83/10
f 46/91/11 42/81/11 43/82/11 48/90/11
f 41/82/12 45/90/12 47/93/12 44/92/12
f 52/97/19 51/96/19 50/95/19 49/94/19
f 49/94/20 50/95/20 54/99/20 53/98/20
f 53/103/21 54/102/21 56/101/21 55/100/21
f 55/100/22 56/101/22 51/96/22 52/97/22
f 54/105/23 50/95/23 51/96/23 56/104/23
f 49/96/24 53/104/24 55/107/24 52/106/24
f 60/111/19 59/110/19 58/109/19 57/108/19
f 57/108/20 58/109/20 62/113/20 61/112/20
f 61/117/21 62/116/21 64/115/21 63/114/21
f 63/114/22 64/115/22 59/110/22 60/111/22
f 62/119/23 58/109/23 59/110/23 64/118/23
f 57/110/24 61/118/24 63/121/24 60/120/24
f 68/125/19 67/124/19 66/123/19 65/122/19
f 65/122/20 66/123/20 70/127/20 69/126/20
f 69/131/21 70/130/21 72/129/21 71/128/21
f 71/128/22 72/129/22 67/124/22 68/125/22
f 70/17/23 66/123/23 67/124/23 72/132/23
f 65/124/24 69/132/24 71/134/24 68/133/24
f 76/138/19 75/137/19 74/136/19 73/135/19
f 73/135/20 74/136/20 78/140/20 77/139/20
f 77/144/21 78/143/21 80/142/21 79/141/21
f 79/141/22 80/142/22 75/137/22 76/138/22
f 78/146/23 74/136/23 75/137/23 80/145/23
f 73/137/24 77/145/24 79/148/24 76/147/24
f 84/152/19 83/151/19 82/150/19 81/149/19
f 81/149/20 82/150/20 85/154/20 78/153/20
f 78/158/21 85/157/21 86/156/21 80/155/21
f 80/155/22 86/156/22 83/151/22 84/152/22
f 85/160/23 82/150/23 83/151/23 86/159/23
f 81/151/24 78/159/24 80/161/24 84/156/24
f 88/165/19 68/164/19 65/163/19 87/162/19
f 87/162/20 65/163/20 90/167/20 89/166/20
f 89/169/21 90/149/21 92/153/21 91/168/21
f 91/168/22 92/153/22 68/164/22 88/165/22
f 90/171/23 65/163/23 68/164/23 92/170/23
f 87/164/24 89/170/24 91/154/24 88/153/24
f 96/174/19 95/173/19 94/169/19 93/172/19
f 93/172/20 94/169/20 98/168/20 97/175/20
f 97/179/21 98/178/21 100/177/21 99/176/21
f 99/176/22 100/177/22 95/173/22 96/174/22
f 98/149/23 94/169/23 95/173/23 100/152/23
f 93/173/24 97/152/24 99/155/24 96/177/24
f 104/183/7 103/182/7 102/181/7 101/180/7
f 101/180/8 102/181/8 106/185/8 105/184/8
f 105/189/9 106/188/9 108/187/9 107/186/9
f 107/186/10 108/187/10 103/182/10 104/183/10
f 106/22/11 102/181/11 103/182/11 108/190/11
f 101/182/12 105/190/12 107/192/12 104/191/12
f 112/190/7 111/194/7 110/193/7 109/21/7
f 109/21/20 110/193/20 114/195/20 113/26/20
f 113/199/9 114/198/9 116/197/9 115/196/9
f 115/196/22 116/197/22 111/194/22 112/190/22
f 114/201/25 110/193/25 111/194/25 116/200/25
f 109/194/26 113/200/26 115/203/26 112/202/26
f 120/145/7 119/205/7 118/204/7 117/146/7
f 117/146/20 118/204/20 122/207/20 121/206/20
f 121/211/9 122/210/9 124/209/9 123/208/9
f 123/208/22 124/209/22 119/205/22 120/145/22
f 122/213/25 118/204/25 119/205/25 124/212/25
f 117/205/26 121/212/26 123/215/26 120/214/26
f 128/219/7 127/218/7 126/217/7 125/216/7
f 125/216/20 126/217/20 130/221/20 129/220/20
f 129/225/9 130/224/9 132/223/9 131/222/9
f 131/222/22 132/223/22 127/218/22 128/219/22
f 130/227/25 126/217/25 127/218/25 132/226/25
f 125/218/26 129/226/26 131/229/26 128/228/26
f 136/233/7 135/232/7 134/231/7 133/230/7
f 133/230/20 134/231/20 138/234/20 137/44/20
f 137/238/9 138/237/9 140/236/9 139/235/9
f 139/235/22 140/236/22 135/232/22 136/233/22
f 138/108/25 134/231/25 135/232/25 140/111/25
f 133/232/26 137/111/26 139/240/26 136/239/26
f 144/244/7 143/243/7 142/242/7 141/241/7
f 141/241/20 142/242/20 146/246/20 145/245/20
f 145/250/9 146/249/9 148/248/9 147/247/9
f 147/247/22 148/248/22 143/243/22 144/244/22
f 146/61/25 142/242/25 143/243/25 148/251/25
f 141/243/26 145/251/26 147/253/26 144/252/26
f 152/226/7 151/255/7 150/254/7 149/227/7
f 149/227/20 150/254/20 154/257/20 153/256/20
f 153/261/9 154/260/9 156/259/9 155/258/9
f 155/258/22 156/259/22 151/255/22 152/226/22
f 154/263/25 150/254/25 151/255/25 156/262/25
f 149/255/26 153/262/26 155/265/26 152/264/26
f 160/269/27 159/268/27 158/267/27 157/266/27
f 157/266/28 158/267/28 162/271/28 161/270/28
f 161/275/29 162/274/29 164/273/29 163/272/29
f 163/272/30 164/273/30 159/268/30 160/269/30
f 162/277/25 158/267/25 159/268/25 164/276/25
f 157/268/26 161/276/26 163/279/26 160/278/26
f 168/170/31 167/281/31 166/280/31 165/171/31
f 165/171/32 166/280/32 170/283/32 169/282/32
f 169/150/33 170/160/33 172/284/33 171/154/33
f 171/154/34 172/284/34 167/281/34 168/170/34
f 170/286/25 166/280/25 167/281/25 172/285/25
f 165/281/26 169/285/26 171/287/26 168/284/26
f 174/27/7 102/290/7 43/289/7 173/288/7
f 173/288/8 43/289/8 48/291/8 175/39/8
f 175/294/9 48/293/9 106/292/9 176/201/9
f 176/201/10 106/292/10 102/290/10 174/27/10
f 48/296/11 43/289/11 102/290/11 106/295/11
f 173/290/12 175/295/12 176/298/12 174/297/12
f 180/159/7 179/300/7 178/299/7 177/160/7
f 177/160/20 178/299/20 182/287/20 181/284/20
f 181/303/9 182/302/9 184/301/9 183/161/9
f 183/161/22 184/301/22 179/300/22 180/159/22
f 182/305/35 178/299/35 179/300/35 184/304/35
f 177/300/26 181/304/26 183/306/26 180/301/26
f 188/310/36 187/309/36 186/308/36 185/307/36
f 185/307/37 186/308/37 190/311/37 189/291/37
f 189/315/38 190/314/38 192/313/38 191/312/38
f 191/312/39 192/313/39 187/309/39 188/310/39
f 190/317/25 186/308/25 187/309/25 192/316/25
f 185/309/26 189/316/26 191/318/26 188/313/26
f 196/322/7 195/321/7 194/320/7 193/319/7
f 193/319/20 194/320/20 198/324/20 197/323/20
f 197/328/9 198/327/9 200/326/9 199/325/9
f 199/325/22 200/326/22 195/321/22 196/322/22
f 198/330/35 194/320/35 195/321/35 200/329/35
f 193/321/26 197/329/26 199/34/26 196/326/26
f 204/285/40 203/332/40 202/331/40 201/286/40
f 201/286/20 202/331/20 206/334/20 205/333/20
f 205/299/41 206/305/41 208/335/41 207/287/41
f 207/287/22 208/335/22 203/332/22 204/285/22
f 206/337/42 202/331/42 203/332/42 208/336/42
f 201/332/43 205/336/43 207/338/43 204/335/43
f 212/316/7 211/340/7 210/339/7 209/317/7
f 209/317/20 210/339/20 214/342/20 213/341/20
f 213/345/9 214/344/9 216/343/9 215/318/9
f 215/318/22 216/343/22 211/340/22 212/316/22
f 214/266/25 210/339/25 211/340/25 216/346/25
f 209/340/26 213/346/26 215/269/26 212/343/26
f 101/349/7 218/348/7 217/144/7 44/347/7
f 44/347/8 217/144/8 219/139/8 47/51/8
f 47/81/9 219/352/9 220/351/9 105/350/9
f 105/350/10 220/351/10 218/348/10 101/349/10
f 219/354/11 217/144/11 218/348/11 220/353/11
f 44/348/12 47/353/12 105/356/12 101/355/12

g reticle_1
v 0.03125 1.985938 0.03125
v 0.03125 2.048438 0.03125
v -0.03125 2.048438 0.03125
v -0.03125 1.985938 0.03125
v 0.03125 1.985938 0.09375
v 0.03125 2.048438 0.09375
v -0.03125 1.985938 0.09375
v -0.03125 2.048438 0.09375

vt 0.66 0.28
vt 0.66 0.3
vt 0.68 0.3
vt 0.68 0.28
vt 0.64 0.28
vt 0.64 0.3
vt 0.7 0.28
vt 0.7 0.3
vt 0.72 0.3
vt 0.72 0.28
vt 0.68 0.32
vt 0.66 0.32
vt 0.7 0.32

vn 0 0 -1
vn 1 0 0
vn 0 0 1
vn -1 0 0
vn 0 1 0
vn 0 -1 0

usemtl aimpoint.png
f 224/360/44 223/359/44 222/358/44 221/357/44
f 221/357/45 222/358/45 226/362/45 225/361/45
f 225/366/46 226/365/46 228/364/46 227/363/46
f 227/363/47 228/364/47 223/359/47 224/360/47
f 226/368/48 222/358/48 223/359/48 228/367/48
f 221/359/49 225/367/49 227/369/49 224/364/49

