# ProBuilder 6.0.5
# https://unity3d.com/unity/features/worldbuilding/probuilder
# 31.05.2025 18:16:10

mtllib ./ar_suppresor.mtl
o ar suppresor

g _ca_suppressor_1
v 0.03125 1.492188 0.678125
v 0.03125 1.554688 0.678125
v -0.03125 1.554688 0.678125
v -0.03125 1.492188 0.678125
v 0.03125 1.492188 0.740625
v 0.03125 1.554688 0.740625
v -0.03125 1.492188 0.740625
v -0.03125 1.554688 0.740625

vt 0.015625 0.96875
vt 0.015625 0.984375
vt 0.03125 0.984375
vt 0.03125 0.96875
vt 0 0.96875
vt 0 0.984375
vt 0.046875 0.96875
vt 0.046875 0.984375
vt 0.0625 0.984375
vt 0.0625 0.96875
vt 0.03125 1
vt 0.015625 1
vt 0.046875 1

vn 0 0 -1
vn 1 0 0
vn 0 0 1
vn -1 0 0
vn 0 1 0
vn 0 -1 0

usemtl ar_suppressor.png
f 4/4/1 3/3/1 2/2/1 1/1/1
f 1/1/2 2/2/2 6/6/2 5/5/2
f 5/10/3 6/9/3 8/8/3 7/7/3
f 7/7/4 8/8/4 3/3/4 4/4/4
f 6/12/5 2/2/5 3/3/5 8/11/5
f 1/3/6 5/11/6 7/13/6 4/8/6

g muzzleflash_1
v 0.00625 1.515625 -1.009375
v 0.00625 1.528125 -1.009375
v -0.00625 1.528125 -1.009375
v -0.00625 1.515625 -1.009375
v 0.00625 1.515625 -0.996875
v 0.00625 1.528125 -0.996875
v -0.00625 1.515625 -0.996875
v -0.00625 1.528125 -0.996875

vt 0.015625 0.9375
vt 0.015625 0.953125
vt 0.03125 0.953125
vt 0.03125 0.9375
vt 0 0.9375
vt 0 0.953125
vt 0.046875 0.9375
vt 0.046875 0.953125
vt 0.0625 0.953125
vt 0.0625 0.9375
vt 0.03125 0.96875
vt 0.015625 0.96875
vt 0.046875 0.96875

vn 0 0 -1
vn 1 0 0
vn 0 0 1
vn -1 0 0
vn 0 1 0
vn 0 -1 0

usemtl ar_suppressor.png
f 12/17/7 11/16/7 10/15/7 9/14/7
f 9/14/8 10/15/8 14/19/8 13/18/8
f 13/23/9 14/22/9 16/21/9 15/20/9
f 15/20/10 16/21/10 11/16/10 12/17/10
f 14/25/11 10/15/11 11/16/11 16/24/11
f 9/16/12 13/24/12 15/26/12 12/21/12

g silencer_1
v 0.0692202 1.377537 -0.959375
v 0.1461747 1.588968 -0.959375
v -0.0652561 1.665922 -0.959375
v -0.1422106 1.454491 -0.959375
v 0.0692202 1.377537 0.703125
v 0.1461747 1.588968 0.703125
v -0.1422106 1.454491 0.703125
v -0.0652561 1.665922 0.703125

vt 0.421875 0.515625
vt 0.421875 0.578125
vt 0.484375 0.578125
vt 0.484375 0.515625
vt 0 0.515625
vt 0 0.578125
vt 0.90625 0.515625
vt 0.90625 0.578125
vt 0.96875 0.578125
vt 0.96875 0.515625
vt 0.484375 1
vt 0.421875 1
vt 0.546875 0.578125
vt 0.546875 1

vn 0 0 -1
vn 0.9396926 -0.3420202 0
vn 0 0 1
vn -0.9396926 0.3420202 0
vn 0.3420202 0.9396926 0
vn -0.3420202 -0.9396926 0

usemtl ar_suppressor.png
f 20/30/13 19/29/13 18/28/13 17/27/13
f 17/27/14 18/28/14 22/32/14 21/31/14
f 21/36/15 22/35/15 24/34/15 23/33/15
f 23/33/16 24/34/16 19/29/16 20/30/16
f 22/38/17 18/28/17 19/29/17 24/37/17
f 17/29/18 21/37/18 23/40/18 20/39/18

