# ProBuilder 6.0.5
# https://unity3d.com/unity/features/worldbuilding/probuilder
# 31.05.2025 18:16:17

mtllib ./ar_suppresor_tan.mtl
o ar suppresor tan

g _ca_suppressor_1
v 0.03125 1.132813 0.6125
v 0.03125 1.195313 0.6125
v -0.03125 1.195313 0.6125
v -0.03125 1.132813 0.6125
v 0.03125 1.132813 0.675
v 0.03125 1.195313 0.675
v -0.03125 1.132813 0.675
v -0.03125 1.195313 0.675

vt 0.015625 0.96875
vt 0.015625 0.984375
vt 0.03125 0.984375
vt 0.03125 0.96875
vt 0 0.96875
vt 0 0.984375
vt 0.046875 0.96875
vt 0.046875 0.984375
vt 0.0625 0.984375
vt 0.0625 0.96875
vt 0.03125 1
vt 0.015625 1
vt 0.046875 1

vn 0 0 -1
vn 1 0 0
vn 0 0 1
vn -1 0 0
vn 0 1 0
vn 0 -1 0

usemtl ar_suppressor_tan.png
f 4/4/1 3/3/1 2/2/1 1/1/1
f 1/1/2 2/2/2 6/6/2 5/5/2
f 5/10/3 6/9/3 8/8/3 7/7/3
f 7/7/4 8/8/4 3/3/4 4/4/4
f 6/12/5 2/2/5 3/3/5 8/11/5
f 1/3/6 5/11/6 7/13/6 4/8/6

g gun_1
v 0.05706178 1.034183 -0.61875
v 0.1254658 1.222122 -0.61875
v -0.0624727 1.290526 -0.61875
v -0.1308767 1.102587 -0.61875
v 0.05706178 1.034183 0.64375
v 0.1254658 1.222122 0.64375
v -0.1308767 1.102587 0.64375
v -0.0624727 1.290526 0.64375

vt 0.328125 0.609375
vt 0.328125 0.671875
vt 0.390625 0.671875
vt 0.390625 0.609375
vt 0 0.609375
vt 0 0.671875
vt 0.71875 0.609375
vt 0.71875 0.671875
vt 0.78125 0.671875
vt 0.78125 0.609375
vt 0.390625 1
vt 0.328125 1
vt 0.453125 0.671875
vt 0.453125 1

vn 0 0 -1
vn 0.9396926 -0.3420202 0
vn 0 0 1
vn -0.9396926 0.3420202 0
vn 0.3420202 0.9396926 0
vn -0.3420202 -0.9396926 0

usemtl ar_suppressor_tan.png
f 12/17/7 11/16/7 10/15/7 9/14/7
f 9/14/8 10/15/8 14/19/8 13/18/8
f 13/23/9 14/22/9 16/21/9 15/20/9
f 15/20/10 16/21/10 11/16/10 12/17/10
f 14/25/11 10/15/11 11/16/11 16/24/11
f 9/16/12 13/24/12 15/27/12 12/26/12

g muzzleflash_1
v 0.00625 1.159375 -0.6453125
v 0.00625 1.171875 -0.6453125
v -0.00625 1.171875 -0.6453125
v -0.00625 1.159375 -0.6453125
v 0.00625 1.159375 -0.6328125
v 0.00625 1.171875 -0.6328125
v -0.00625 1.159375 -0.6328125
v -0.00625 1.171875 -0.6328125

vt 0.015625 0.9375
vt 0.015625 0.953125
vt 0.03125 0.953125
vt 0.03125 0.9375
vt 0 0.9375
vt 0 0.953125
vt 0.046875 0.9375
vt 0.046875 0.953125
vt 0.0625 0.953125
vt 0.0625 0.9375
vt 0.03125 0.96875
vt 0.015625 0.96875
vt 0.046875 0.96875

vn 0 0 -1
vn 1 0 0
vn 0 0 1
vn -1 0 0
vn 0 1 0
vn 0 -1 0

usemtl ar_suppressor_tan.png
f 20/31/13 19/30/13 18/29/13 17/28/13
f 17/28/14 18/29/14 22/33/14 21/32/14
f 21/37/15 22/36/15 24/35/15 23/34/15
f 23/34/16 24/35/16 19/30/16 20/31/16
f 22/39/17 18/29/17 19/30/17 24/38/17
f 17/30/18 21/38/18 23/40/18 20/35/18

